%TF.GenerationSoftware,KiCad,Pcbnew,10.0.5*%
%TF.CreationDate,2026-08-10T16:31:16+02:00*%
%TF.ProjectId,soundpad,736f756e-6470-4616-942e-6b696361645f,rev?*%
%TF.SameCoordinates,Original*%
%TF.FileFunction,Copper,L2,Bot*%
%TF.FilePolarity,Positive*%
%FSLAX46Y46*%
G04 Gerber Fmt 4.6, Leading zero omitted, Abs format (unit mm)*
G04 Created by KiCad (PCBNEW 10.0.5) date 2026-08-10 16:31:16*
%MOMM*%
%LPD*%
G01*
G04 APERTURE LIST*
G04 Aperture macros list*
%AMRoundRect*
0 Rectangle with rounded corners*
0 $1 Rounding radius*
0 $2 $3 $4 $5 $6 $7 $8 $9 X,Y pos of 4 corners*
0 Add a 4 corners polygon primitive as box body*
4,1,4,$2,$3,$4,$5,$6,$7,$8,$9,$2,$3,0*
0 Add four circle primitives for the rounded corners*
1,1,$1+$1,$2,$3*
1,1,$1+$1,$4,$5*
1,1,$1+$1,$6,$7*
1,1,$1+$1,$8,$9*
0 Add four rect primitives between the rounded corners*
20,1,$1+$1,$2,$3,$4,$5,0*
20,1,$1+$1,$4,$5,$6,$7,0*
20,1,$1+$1,$6,$7,$8,$9,0*
20,1,$1+$1,$8,$9,$2,$3,0*%
G04 Aperture macros list end*
%TA.AperFunction,ComponentPad*%
%ADD10C,2.200000*%
%TD*%
%TA.AperFunction,ComponentPad*%
%ADD11RoundRect,0.170000X0.680000X-0.680000X0.680000X0.680000X-0.680000X0.680000X-0.680000X-0.680000X0*%
%TD*%
%TA.AperFunction,ComponentPad*%
%ADD12C,1.700000*%
%TD*%
%TA.AperFunction,ComponentPad*%
%ADD13R,2.000000X2.000000*%
%TD*%
%TA.AperFunction,ComponentPad*%
%ADD14C,2.000000*%
%TD*%
%TA.AperFunction,ComponentPad*%
%ADD15R,3.200000X2.000000*%
%TD*%
%TA.AperFunction,ComponentPad*%
%ADD16C,1.524000*%
%TD*%
%TA.AperFunction,Conductor*%
%ADD17C,0.200000*%
%TD*%
G04 APERTURE END LIST*
D10*
%TO.P,SW2,1,1_1*%
%TO.N,Net-(U1-PA7_A8_D8_SCK)*%
X188040000Y-89420000D03*
%TO.P,SW2,2,2_2*%
%TO.N,GND*%
X181690000Y-91960000D03*
%TD*%
D11*
%TO.P,U2,1,GND_1*%
%TO.N,GND*%
X114500000Y-66310000D03*
D12*
%TO.P,U2,2,VCC_2*%
%TO.N,+3.3V*%
X114500000Y-63770000D03*
%TO.P,U2,3,SCL_3*%
%TO.N,Net-(U1-PA9_A5_D5_SCL)*%
X114500000Y-61230000D03*
%TO.P,U2,4,SDA_4*%
%TO.N,Net-(U1-PA8_A4_D4_SDA)*%
X114500000Y-58690000D03*
%TD*%
D10*
%TO.P,SW1,1,1_1*%
%TO.N,Net-(U1-PA5_A9_D9_MISO)*%
X166540000Y-89420000D03*
%TO.P,SW1,2,2_2*%
%TO.N,GND*%
X160190000Y-91960000D03*
%TD*%
%TO.P,SW3,1,1_1*%
%TO.N,Net-(U1-PB09_A7_D7_RX)*%
X144040000Y-89420000D03*
%TO.P,SW3,2,2_2*%
%TO.N,GND*%
X137690000Y-91960000D03*
%TD*%
D13*
%TO.P,SW4,A,A_A*%
%TO.N,Net-(U1-PA4_A1_D1)*%
X183750000Y-58000000D03*
D14*
%TO.P,SW4,B,B_B*%
%TO.N,Net-(U1-PA02_A0_D0)*%
X183750000Y-63000000D03*
%TO.P,SW4,C,C_C*%
%TO.N,GND*%
X183750000Y-60500000D03*
D15*
%TO.P,SW4,MP*%
%TO.N,N/C*%
X191250000Y-54900000D03*
X191250000Y-66100000D03*
D14*
%TO.P,SW4,S1,S1_S1*%
%TO.N,Net-(U1-PA6_A10_D10_MOSI)*%
X198250000Y-63000000D03*
%TO.P,SW4,S2,S2_S2*%
%TO.N,GND*%
X198250000Y-58000000D03*
%TD*%
D16*
%TO.P,U1,1,PA02_A0_D0_1*%
%TO.N,Net-(U1-PA02_A0_D0)*%
X155880000Y-55148500D03*
%TO.P,U1,2,PA4_A1_D1_2*%
%TO.N,Net-(U1-PA4_A1_D1)*%
X155880000Y-57688500D03*
%TO.P,U1,3,PA10_A2_D2_3*%
%TO.N,unconnected-(U1-PA10_A2_D2-Pad3)*%
X155880000Y-60228500D03*
%TO.P,U1,4,PA11_A3_D3_4*%
%TO.N,unconnected-(U1-PA11_A3_D3-Pad4)*%
X155880000Y-62768500D03*
%TO.P,U1,5,PA8_A4_D4_SDA_5*%
%TO.N,Net-(U1-PA8_A4_D4_SDA)*%
X155880000Y-65308500D03*
%TO.P,U1,6,PA9_A5_D5_SCL_6*%
%TO.N,Net-(U1-PA9_A5_D5_SCL)*%
X155880000Y-67848500D03*
%TO.P,U1,7,PB08_A6_D6_TX_7*%
%TO.N,unconnected-(U1-PB08_A6_D6_TX-Pad7)*%
X155880000Y-70388500D03*
%TO.P,U1,8,PB09_A7_D7_RX_8*%
%TO.N,Net-(U1-PB09_A7_D7_RX)*%
X171120000Y-70388500D03*
%TO.P,U1,9,PA7_A8_D8_SCK_9*%
%TO.N,Net-(U1-PA7_A8_D8_SCK)*%
X171120000Y-67848500D03*
%TO.P,U1,10,PA5_A9_D9_MISO_10*%
%TO.N,Net-(U1-PA5_A9_D9_MISO)*%
X171120000Y-65308500D03*
%TO.P,U1,11,PA6_A10_D10_MOSI_11*%
%TO.N,Net-(U1-PA6_A10_D10_MOSI)*%
X171120000Y-62768500D03*
%TO.P,U1,12,3V3_12*%
%TO.N,+3.3V*%
X171120000Y-60228500D03*
%TO.P,U1,13,GND_13*%
%TO.N,GND*%
X171120000Y-57688500D03*
%TO.P,U1,14,5V_14*%
%TO.N,unconnected-(U1-5V-Pad14)*%
X171120000Y-55148500D03*
%TD*%
%TO.N,Net-(U1-PB09_A7_D7_RX)*%
D17*
X152088500Y-89420000D02*
X171120000Y-70388500D01*
X144040000Y-89420000D02*
X152088500Y-89420000D01*
%TO.N,Net-(U1-PA4_A1_D1)*%
X156942000Y-56626500D02*
X155880000Y-57688500D01*
X182376500Y-56626500D02*
X156942000Y-56626500D01*
X183750000Y-58000000D02*
X182376500Y-56626500D01*
%TO.N,Net-(U1-PA9_A5_D5_SCL)*%
X121118500Y-67848500D02*
X155880000Y-67848500D01*
X114500000Y-61230000D02*
X121118500Y-67848500D01*
%TO.N,Net-(U1-PA8_A4_D4_SDA)*%
X114500000Y-58690000D02*
X121118500Y-65308500D01*
X121118500Y-65308500D02*
X155880000Y-65308500D01*
%TD*%
%TA.AperFunction,Conductor*%
%TO.N,GND*%
G36*
X189153270Y-53520185D02*
G01*
X189199025Y-53572989D01*
X189208969Y-53642147D01*
X189202413Y-53667833D01*
X189155908Y-53792517D01*
X189149501Y-53852116D01*
X189149501Y-53852123D01*
X189149500Y-53852135D01*
X189149500Y-55947870D01*
X189149501Y-55947876D01*
X189155908Y-56007483D01*
X189206202Y-56142328D01*
X189206206Y-56142335D01*
X189292452Y-56257544D01*
X189292455Y-56257547D01*
X189407664Y-56343793D01*
X189407671Y-56343797D01*
X189542517Y-56394091D01*
X189542516Y-56394091D01*
X189549444Y-56394835D01*
X189602127Y-56400500D01*
X192897872Y-56400499D01*
X192957483Y-56394091D01*
X193092331Y-56343796D01*
X193207546Y-56257546D01*
X193293796Y-56142331D01*
X193344091Y-56007483D01*
X193350500Y-55947873D01*
X193350499Y-53852128D01*
X193344091Y-53792517D01*
X193297587Y-53667833D01*
X193292603Y-53598141D01*
X193326088Y-53536818D01*
X193387411Y-53503334D01*
X193413769Y-53500500D01*
X200375500Y-53500500D01*
X200442539Y-53520185D01*
X200488294Y-53572989D01*
X200499500Y-53624500D01*
X200499500Y-105375500D01*
X200479815Y-105442539D01*
X200427011Y-105488294D01*
X200375500Y-105499500D01*
X112124500Y-105499500D01*
X112057461Y-105479815D01*
X112011706Y-105427011D01*
X112000500Y-105375500D01*
X112000500Y-94878711D01*
X120149500Y-94878711D01*
X120149500Y-95121288D01*
X120181161Y-95361785D01*
X120243947Y-95596104D01*
X120308933Y-95752993D01*
X120336776Y-95820212D01*
X120458064Y-96030289D01*
X120458066Y-96030292D01*
X120458067Y-96030293D01*
X120605733Y-96222736D01*
X120605739Y-96222743D01*
X120777256Y-96394260D01*
X120777262Y-96394265D01*
X120969711Y-96541936D01*
X121179788Y-96663224D01*
X121403900Y-96756054D01*
X121638211Y-96818838D01*
X121818586Y-96842584D01*
X121878711Y-96850500D01*
X121878712Y-96850500D01*
X122121289Y-96850500D01*
X122169388Y-96844167D01*
X122361789Y-96818838D01*
X122596100Y-96756054D01*
X122820212Y-96663224D01*
X123030289Y-96541936D01*
X123222738Y-96394265D01*
X123394265Y-96222738D01*
X123541936Y-96030289D01*
X123663224Y-95820212D01*
X123756054Y-95596100D01*
X123818838Y-95361789D01*
X123850500Y-95121288D01*
X123850500Y-94878712D01*
X123818838Y-94638211D01*
X123758597Y-94413389D01*
X135319500Y-94413389D01*
X135319500Y-94586611D01*
X135346598Y-94757701D01*
X135400127Y-94922445D01*
X135478768Y-95076788D01*
X135580586Y-95216928D01*
X135703072Y-95339414D01*
X135843212Y-95441232D01*
X135997555Y-95519873D01*
X136162299Y-95573402D01*
X136333389Y-95600500D01*
X136333390Y-95600500D01*
X136506610Y-95600500D01*
X136506611Y-95600500D01*
X136677701Y-95573402D01*
X136842445Y-95519873D01*
X136996788Y-95441232D01*
X137136928Y-95339414D01*
X137259414Y-95216928D01*
X137361232Y-95076788D01*
X137439873Y-94922445D01*
X137493402Y-94757701D01*
X137520500Y-94586611D01*
X137520500Y-94413389D01*
X137510854Y-94352486D01*
X139249500Y-94352486D01*
X139249500Y-94647513D01*
X139279939Y-94878711D01*
X139288007Y-94939993D01*
X139362212Y-95216930D01*
X139364361Y-95224951D01*
X139364364Y-95224961D01*
X139477254Y-95497500D01*
X139477258Y-95497510D01*
X139624761Y-95752993D01*
X139804352Y-95987040D01*
X139804358Y-95987047D01*
X140012952Y-96195641D01*
X140012959Y-96195647D01*
X140247006Y-96375238D01*
X140502489Y-96522741D01*
X140502490Y-96522741D01*
X140502493Y-96522743D01*
X140775048Y-96635639D01*
X141060007Y-96711993D01*
X141352494Y-96750500D01*
X141352501Y-96750500D01*
X141647499Y-96750500D01*
X141647506Y-96750500D01*
X141939993Y-96711993D01*
X142224952Y-96635639D01*
X142497507Y-96522743D01*
X142752994Y-96375238D01*
X142987042Y-96195646D01*
X143195646Y-95987042D01*
X143375238Y-95752994D01*
X143522743Y-95497507D01*
X143635639Y-95224952D01*
X143711993Y-94939993D01*
X143750500Y-94647506D01*
X143750500Y-94413389D01*
X145479500Y-94413389D01*
X145479500Y-94586611D01*
X145506598Y-94757701D01*
X145560127Y-94922445D01*
X145638768Y-95076788D01*
X145740586Y-95216928D01*
X145863072Y-95339414D01*
X146003212Y-95441232D01*
X146157555Y-95519873D01*
X146322299Y-95573402D01*
X146493389Y-95600500D01*
X146493390Y-95600500D01*
X146666610Y-95600500D01*
X146666611Y-95600500D01*
X146837701Y-95573402D01*
X147002445Y-95519873D01*
X147156788Y-95441232D01*
X147296928Y-95339414D01*
X147419414Y-95216928D01*
X147521232Y-95076788D01*
X147599873Y-94922445D01*
X147653402Y-94757701D01*
X147680500Y-94586611D01*
X147680500Y-94413389D01*
X157819500Y-94413389D01*
X157819500Y-94586611D01*
X157846598Y-94757701D01*
X157900127Y-94922445D01*
X157978768Y-95076788D01*
X158080586Y-95216928D01*
X158203072Y-95339414D01*
X158343212Y-95441232D01*
X158497555Y-95519873D01*
X158662299Y-95573402D01*
X158833389Y-95600500D01*
X158833390Y-95600500D01*
X159006610Y-95600500D01*
X159006611Y-95600500D01*
X159177701Y-95573402D01*
X159342445Y-95519873D01*
X159496788Y-95441232D01*
X159636928Y-95339414D01*
X159759414Y-95216928D01*
X159861232Y-95076788D01*
X159939873Y-94922445D01*
X159993402Y-94757701D01*
X160020500Y-94586611D01*
X160020500Y-94413389D01*
X160010854Y-94352486D01*
X161749500Y-94352486D01*
X161749500Y-94647513D01*
X161779939Y-94878711D01*
X161788007Y-94939993D01*
X161862212Y-95216930D01*
X161864361Y-95224951D01*
X161864364Y-95224961D01*
X161977254Y-95497500D01*
X161977258Y-95497510D01*
X162124761Y-95752993D01*
X162304352Y-95987040D01*
X162304358Y-95987047D01*
X162512952Y-96195641D01*
X162512959Y-96195647D01*
X162747006Y-96375238D01*
X163002489Y-96522741D01*
X163002490Y-96522741D01*
X163002493Y-96522743D01*
X163275048Y-96635639D01*
X163560007Y-96711993D01*
X163852494Y-96750500D01*
X163852501Y-96750500D01*
X164147499Y-96750500D01*
X164147506Y-96750500D01*
X164439993Y-96711993D01*
X164724952Y-96635639D01*
X164997507Y-96522743D01*
X165252994Y-96375238D01*
X165487042Y-96195646D01*
X165695646Y-95987042D01*
X165875238Y-95752994D01*
X166022743Y-95497507D01*
X166135639Y-95224952D01*
X166211993Y-94939993D01*
X166250500Y-94647506D01*
X166250500Y-94413389D01*
X167979500Y-94413389D01*
X167979500Y-94586611D01*
X168006598Y-94757701D01*
X168060127Y-94922445D01*
X168138768Y-95076788D01*
X168240586Y-95216928D01*
X168363072Y-95339414D01*
X168503212Y-95441232D01*
X168657555Y-95519873D01*
X168822299Y-95573402D01*
X168993389Y-95600500D01*
X168993390Y-95600500D01*
X169166610Y-95600500D01*
X169166611Y-95600500D01*
X169337701Y-95573402D01*
X169502445Y-95519873D01*
X169656788Y-95441232D01*
X169796928Y-95339414D01*
X169919414Y-95216928D01*
X170021232Y-95076788D01*
X170099873Y-94922445D01*
X170153402Y-94757701D01*
X170180500Y-94586611D01*
X170180500Y-94413389D01*
X179319500Y-94413389D01*
X179319500Y-94586611D01*
X179346598Y-94757701D01*
X179400127Y-94922445D01*
X179478768Y-95076788D01*
X179580586Y-95216928D01*
X179703072Y-95339414D01*
X179843212Y-95441232D01*
X179997555Y-95519873D01*
X180162299Y-95573402D01*
X180333389Y-95600500D01*
X180333390Y-95600500D01*
X180506610Y-95600500D01*
X180506611Y-95600500D01*
X180677701Y-95573402D01*
X180842445Y-95519873D01*
X180996788Y-95441232D01*
X181136928Y-95339414D01*
X181259414Y-95216928D01*
X181361232Y-95076788D01*
X181439873Y-94922445D01*
X181493402Y-94757701D01*
X181520500Y-94586611D01*
X181520500Y-94413389D01*
X181510854Y-94352486D01*
X183249500Y-94352486D01*
X183249500Y-94647513D01*
X183279939Y-94878711D01*
X183288007Y-94939993D01*
X183362212Y-95216930D01*
X183364361Y-95224951D01*
X183364364Y-95224961D01*
X183477254Y-95497500D01*
X183477258Y-95497510D01*
X183624761Y-95752993D01*
X183804352Y-95987040D01*
X183804358Y-95987047D01*
X184012952Y-96195641D01*
X184012959Y-96195647D01*
X184247006Y-96375238D01*
X184502489Y-96522741D01*
X184502490Y-96522741D01*
X184502493Y-96522743D01*
X184775048Y-96635639D01*
X185060007Y-96711993D01*
X185352494Y-96750500D01*
X185352501Y-96750500D01*
X185647499Y-96750500D01*
X185647506Y-96750500D01*
X185939993Y-96711993D01*
X186224952Y-96635639D01*
X186497507Y-96522743D01*
X186752994Y-96375238D01*
X186987042Y-96195646D01*
X187195646Y-95987042D01*
X187375238Y-95752994D01*
X187522743Y-95497507D01*
X187635639Y-95224952D01*
X187711993Y-94939993D01*
X187750500Y-94647506D01*
X187750500Y-94413389D01*
X189479500Y-94413389D01*
X189479500Y-94586611D01*
X189506598Y-94757701D01*
X189560127Y-94922445D01*
X189638768Y-95076788D01*
X189740586Y-95216928D01*
X189863072Y-95339414D01*
X190003212Y-95441232D01*
X190157555Y-95519873D01*
X190322299Y-95573402D01*
X190493389Y-95600500D01*
X190493390Y-95600500D01*
X190666610Y-95600500D01*
X190666611Y-95600500D01*
X190837701Y-95573402D01*
X191002445Y-95519873D01*
X191156788Y-95441232D01*
X191296928Y-95339414D01*
X191419414Y-95216928D01*
X191521232Y-95076788D01*
X191599873Y-94922445D01*
X191653402Y-94757701D01*
X191680500Y-94586611D01*
X191680500Y-94413389D01*
X191653402Y-94242299D01*
X191599873Y-94077555D01*
X191521232Y-93923212D01*
X191419414Y-93783072D01*
X191296928Y-93660586D01*
X191156788Y-93558768D01*
X191002445Y-93480127D01*
X190837701Y-93426598D01*
X190837699Y-93426597D01*
X190837698Y-93426597D01*
X190706271Y-93405781D01*
X190666611Y-93399500D01*
X190493389Y-93399500D01*
X190453728Y-93405781D01*
X190322302Y-93426597D01*
X190157552Y-93480128D01*
X190003211Y-93558768D01*
X189938562Y-93605739D01*
X189863072Y-93660586D01*
X189863070Y-93660588D01*
X189863069Y-93660588D01*
X189740588Y-93783069D01*
X189740588Y-93783070D01*
X189740586Y-93783072D01*
X189696859Y-93843256D01*
X189638768Y-93923211D01*
X189560128Y-94077552D01*
X189506597Y-94242302D01*
X189481004Y-94403895D01*
X189479500Y-94413389D01*
X187750500Y-94413389D01*
X187750500Y-94352494D01*
X187711993Y-94060007D01*
X187635639Y-93775048D01*
X187522743Y-93502493D01*
X187472604Y-93415650D01*
X187375238Y-93247006D01*
X187195647Y-93012959D01*
X187195641Y-93012952D01*
X186987047Y-92804358D01*
X186987040Y-92804352D01*
X186752993Y-92624761D01*
X186497510Y-92477258D01*
X186497500Y-92477254D01*
X186224961Y-92364364D01*
X186224954Y-92364362D01*
X186224952Y-92364361D01*
X185939993Y-92288007D01*
X185891113Y-92281571D01*
X185647513Y-92249500D01*
X185647506Y-92249500D01*
X185352494Y-92249500D01*
X185352486Y-92249500D01*
X185074085Y-92286153D01*
X185060007Y-92288007D01*
X184885861Y-92334669D01*
X184775048Y-92364361D01*
X184775038Y-92364364D01*
X184502499Y-92477254D01*
X184502489Y-92477258D01*
X184247006Y-92624761D01*
X184012959Y-92804352D01*
X184012952Y-92804358D01*
X183804358Y-93012952D01*
X183804352Y-93012959D01*
X183624761Y-93247006D01*
X183477258Y-93502489D01*
X183477254Y-93502499D01*
X183364364Y-93775038D01*
X183364361Y-93775048D01*
X183288008Y-94060004D01*
X183288006Y-94060015D01*
X183249500Y-94352486D01*
X181510854Y-94352486D01*
X181493402Y-94242299D01*
X181439873Y-94077555D01*
X181361232Y-93923212D01*
X181259414Y-93783072D01*
X181206882Y-93730540D01*
X181173397Y-93669217D01*
X181178381Y-93599525D01*
X181220253Y-93543592D01*
X181285717Y-93519175D01*
X181313961Y-93520386D01*
X181564072Y-93560000D01*
X181815928Y-93560000D01*
X182064669Y-93520602D01*
X182304184Y-93442780D01*
X182528575Y-93328446D01*
X182528581Y-93328442D01*
X182630697Y-93254250D01*
X182630698Y-93254250D01*
X182014025Y-92637578D01*
X182045258Y-92624641D01*
X182168097Y-92542563D01*
X182272563Y-92438097D01*
X182354641Y-92315258D01*
X182367578Y-92284025D01*
X182984250Y-92900698D01*
X182984250Y-92900697D01*
X183058442Y-92798581D01*
X183058446Y-92798575D01*
X183172780Y-92574184D01*
X183250602Y-92334669D01*
X183290000Y-92085928D01*
X183290000Y-91834071D01*
X183250602Y-91585330D01*
X183172780Y-91345815D01*
X183058442Y-91121416D01*
X182984250Y-91019301D01*
X182984250Y-91019300D01*
X182367577Y-91635973D01*
X182354641Y-91604742D01*
X182272563Y-91481903D01*
X182168097Y-91377437D01*
X182045258Y-91295359D01*
X182014024Y-91282421D01*
X182630698Y-90665748D01*
X182528583Y-90591557D01*
X182304184Y-90477219D01*
X182064669Y-90399397D01*
X181815928Y-90360000D01*
X181564072Y-90360000D01*
X181315330Y-90399397D01*
X181075815Y-90477219D01*
X180851413Y-90591559D01*
X180749301Y-90665747D01*
X180749300Y-90665748D01*
X181365974Y-91282421D01*
X181334742Y-91295359D01*
X181211903Y-91377437D01*
X181107437Y-91481903D01*
X181025359Y-91604742D01*
X181012421Y-91635974D01*
X180395748Y-91019300D01*
X180395747Y-91019301D01*
X180321559Y-91121413D01*
X180207219Y-91345815D01*
X180129397Y-91585330D01*
X180090000Y-91834071D01*
X180090000Y-92085928D01*
X180129397Y-92334669D01*
X180207219Y-92574184D01*
X180321557Y-92798583D01*
X180395748Y-92900697D01*
X180395748Y-92900698D01*
X181012421Y-92284024D01*
X181025359Y-92315258D01*
X181107437Y-92438097D01*
X181211903Y-92542563D01*
X181334742Y-92624641D01*
X181365974Y-92637577D01*
X180749300Y-93254250D01*
X180751598Y-93283449D01*
X180737233Y-93351827D01*
X180688181Y-93401583D01*
X180620016Y-93416921D01*
X180608583Y-93415650D01*
X180506611Y-93399500D01*
X180333389Y-93399500D01*
X180293728Y-93405781D01*
X180162302Y-93426597D01*
X179997552Y-93480128D01*
X179843211Y-93558768D01*
X179778562Y-93605739D01*
X179703072Y-93660586D01*
X179703070Y-93660588D01*
X179703069Y-93660588D01*
X179580588Y-93783069D01*
X179580588Y-93783070D01*
X179580586Y-93783072D01*
X179536859Y-93843256D01*
X179478768Y-93923211D01*
X179400128Y-94077552D01*
X179346597Y-94242302D01*
X179321004Y-94403895D01*
X179319500Y-94413389D01*
X170180500Y-94413389D01*
X170153402Y-94242299D01*
X170099873Y-94077555D01*
X170021232Y-93923212D01*
X169919414Y-93783072D01*
X169796928Y-93660586D01*
X169656788Y-93558768D01*
X169502445Y-93480127D01*
X169337701Y-93426598D01*
X169337699Y-93426597D01*
X169337698Y-93426597D01*
X169206271Y-93405781D01*
X169166611Y-93399500D01*
X168993389Y-93399500D01*
X168953728Y-93405781D01*
X168822302Y-93426597D01*
X168657552Y-93480128D01*
X168503211Y-93558768D01*
X168438562Y-93605739D01*
X168363072Y-93660586D01*
X168363070Y-93660588D01*
X168363069Y-93660588D01*
X168240588Y-93783069D01*
X168240588Y-93783070D01*
X168240586Y-93783072D01*
X168196859Y-93843256D01*
X168138768Y-93923211D01*
X168060128Y-94077552D01*
X168006597Y-94242302D01*
X167981004Y-94403895D01*
X167979500Y-94413389D01*
X166250500Y-94413389D01*
X166250500Y-94352494D01*
X166211993Y-94060007D01*
X166135639Y-93775048D01*
X166022743Y-93502493D01*
X165972604Y-93415650D01*
X165875238Y-93247006D01*
X165695647Y-93012959D01*
X165695641Y-93012952D01*
X165487047Y-92804358D01*
X165487040Y-92804352D01*
X165252993Y-92624761D01*
X164997510Y-92477258D01*
X164997500Y-92477254D01*
X164724961Y-92364364D01*
X164724954Y-92364362D01*
X164724952Y-92364361D01*
X164439993Y-92288007D01*
X164391113Y-92281571D01*
X164147513Y-92249500D01*
X164147506Y-92249500D01*
X163852494Y-92249500D01*
X163852486Y-92249500D01*
X163574085Y-92286153D01*
X163560007Y-92288007D01*
X163385861Y-92334669D01*
X163275048Y-92364361D01*
X163275038Y-92364364D01*
X163002499Y-92477254D01*
X163002489Y-92477258D01*
X162747006Y-92624761D01*
X162512959Y-92804352D01*
X162512952Y-92804358D01*
X162304358Y-93012952D01*
X162304352Y-93012959D01*
X162124761Y-93247006D01*
X161977258Y-93502489D01*
X161977254Y-93502499D01*
X161864364Y-93775038D01*
X161864361Y-93775048D01*
X161788008Y-94060004D01*
X161788006Y-94060015D01*
X161749500Y-94352486D01*
X160010854Y-94352486D01*
X159993402Y-94242299D01*
X159939873Y-94077555D01*
X159861232Y-93923212D01*
X159759414Y-93783072D01*
X159706882Y-93730540D01*
X159673397Y-93669217D01*
X159678381Y-93599525D01*
X159720253Y-93543592D01*
X159785717Y-93519175D01*
X159813961Y-93520386D01*
X160064072Y-93560000D01*
X160315928Y-93560000D01*
X160564669Y-93520602D01*
X160804184Y-93442780D01*
X161028575Y-93328446D01*
X161028581Y-93328442D01*
X161130697Y-93254250D01*
X161130698Y-93254250D01*
X160514025Y-92637578D01*
X160545258Y-92624641D01*
X160668097Y-92542563D01*
X160772563Y-92438097D01*
X160854641Y-92315258D01*
X160867578Y-92284025D01*
X161484250Y-92900698D01*
X161484250Y-92900697D01*
X161558442Y-92798581D01*
X161558446Y-92798575D01*
X161672780Y-92574184D01*
X161750602Y-92334669D01*
X161790000Y-92085928D01*
X161790000Y-91834071D01*
X161750602Y-91585330D01*
X161672780Y-91345815D01*
X161558442Y-91121416D01*
X161484250Y-91019301D01*
X161484250Y-91019300D01*
X160867577Y-91635973D01*
X160854641Y-91604742D01*
X160772563Y-91481903D01*
X160668097Y-91377437D01*
X160545258Y-91295359D01*
X160514024Y-91282421D01*
X161130698Y-90665748D01*
X161028583Y-90591557D01*
X160804184Y-90477219D01*
X160564669Y-90399397D01*
X160315928Y-90360000D01*
X160064072Y-90360000D01*
X159815330Y-90399397D01*
X159575815Y-90477219D01*
X159351413Y-90591559D01*
X159249301Y-90665747D01*
X159249300Y-90665748D01*
X159865974Y-91282421D01*
X159834742Y-91295359D01*
X159711903Y-91377437D01*
X159607437Y-91481903D01*
X159525359Y-91604742D01*
X159512421Y-91635974D01*
X158895748Y-91019300D01*
X158895747Y-91019301D01*
X158821559Y-91121413D01*
X158707219Y-91345815D01*
X158629397Y-91585330D01*
X158590000Y-91834071D01*
X158590000Y-92085928D01*
X158629397Y-92334669D01*
X158707219Y-92574184D01*
X158821557Y-92798583D01*
X158895748Y-92900697D01*
X158895748Y-92900698D01*
X159512421Y-92284024D01*
X159525359Y-92315258D01*
X159607437Y-92438097D01*
X159711903Y-92542563D01*
X159834742Y-92624641D01*
X159865974Y-92637577D01*
X159249300Y-93254250D01*
X159251598Y-93283449D01*
X159237233Y-93351827D01*
X159188181Y-93401583D01*
X159120016Y-93416921D01*
X159108583Y-93415650D01*
X159006611Y-93399500D01*
X158833389Y-93399500D01*
X158793728Y-93405781D01*
X158662302Y-93426597D01*
X158497552Y-93480128D01*
X158343211Y-93558768D01*
X158278562Y-93605739D01*
X158203072Y-93660586D01*
X158203070Y-93660588D01*
X158203069Y-93660588D01*
X158080588Y-93783069D01*
X158080588Y-93783070D01*
X158080586Y-93783072D01*
X158036859Y-93843256D01*
X157978768Y-93923211D01*
X157900128Y-94077552D01*
X157846597Y-94242302D01*
X157821004Y-94403895D01*
X157819500Y-94413389D01*
X147680500Y-94413389D01*
X147653402Y-94242299D01*
X147599873Y-94077555D01*
X147521232Y-93923212D01*
X147419414Y-93783072D01*
X147296928Y-93660586D01*
X147156788Y-93558768D01*
X147002445Y-93480127D01*
X146837701Y-93426598D01*
X146837699Y-93426597D01*
X146837698Y-93426597D01*
X146706271Y-93405781D01*
X146666611Y-93399500D01*
X146493389Y-93399500D01*
X146453728Y-93405781D01*
X146322302Y-93426597D01*
X146157552Y-93480128D01*
X146003211Y-93558768D01*
X145938562Y-93605739D01*
X145863072Y-93660586D01*
X145863070Y-93660588D01*
X145863069Y-93660588D01*
X145740588Y-93783069D01*
X145740588Y-93783070D01*
X145740586Y-93783072D01*
X145696859Y-93843256D01*
X145638768Y-93923211D01*
X145560128Y-94077552D01*
X145506597Y-94242302D01*
X145481004Y-94403895D01*
X145479500Y-94413389D01*
X143750500Y-94413389D01*
X143750500Y-94352494D01*
X143711993Y-94060007D01*
X143635639Y-93775048D01*
X143522743Y-93502493D01*
X143472604Y-93415650D01*
X143375238Y-93247006D01*
X143195647Y-93012959D01*
X143195641Y-93012952D01*
X142987047Y-92804358D01*
X142987040Y-92804352D01*
X142752993Y-92624761D01*
X142497510Y-92477258D01*
X142497500Y-92477254D01*
X142224961Y-92364364D01*
X142224954Y-92364362D01*
X142224952Y-92364361D01*
X141939993Y-92288007D01*
X141891113Y-92281571D01*
X141647513Y-92249500D01*
X141647506Y-92249500D01*
X141352494Y-92249500D01*
X141352486Y-92249500D01*
X141074085Y-92286153D01*
X141060007Y-92288007D01*
X140885861Y-92334669D01*
X140775048Y-92364361D01*
X140775038Y-92364364D01*
X140502499Y-92477254D01*
X140502489Y-92477258D01*
X140247006Y-92624761D01*
X140012959Y-92804352D01*
X140012952Y-92804358D01*
X139804358Y-93012952D01*
X139804352Y-93012959D01*
X139624761Y-93247006D01*
X139477258Y-93502489D01*
X139477254Y-93502499D01*
X139364364Y-93775038D01*
X139364361Y-93775048D01*
X139288008Y-94060004D01*
X139288006Y-94060015D01*
X139249500Y-94352486D01*
X137510854Y-94352486D01*
X137493402Y-94242299D01*
X137439873Y-94077555D01*
X137361232Y-93923212D01*
X137259414Y-93783072D01*
X137206882Y-93730540D01*
X137173397Y-93669217D01*
X137178381Y-93599525D01*
X137220253Y-93543592D01*
X137285717Y-93519175D01*
X137313961Y-93520386D01*
X137564072Y-93560000D01*
X137815928Y-93560000D01*
X138064669Y-93520602D01*
X138304184Y-93442780D01*
X138528575Y-93328446D01*
X138528581Y-93328442D01*
X138630697Y-93254250D01*
X138630698Y-93254250D01*
X138014025Y-92637578D01*
X138045258Y-92624641D01*
X138168097Y-92542563D01*
X138272563Y-92438097D01*
X138354641Y-92315258D01*
X138367578Y-92284025D01*
X138984250Y-92900698D01*
X138984250Y-92900697D01*
X139058442Y-92798581D01*
X139058446Y-92798575D01*
X139172780Y-92574184D01*
X139250602Y-92334669D01*
X139290000Y-92085928D01*
X139290000Y-91834071D01*
X139250602Y-91585330D01*
X139172780Y-91345815D01*
X139058442Y-91121416D01*
X138984250Y-91019301D01*
X138984250Y-91019300D01*
X138367577Y-91635973D01*
X138354641Y-91604742D01*
X138272563Y-91481903D01*
X138168097Y-91377437D01*
X138045258Y-91295359D01*
X138014024Y-91282421D01*
X138630698Y-90665748D01*
X138528583Y-90591557D01*
X138304184Y-90477219D01*
X138064669Y-90399397D01*
X137815928Y-90360000D01*
X137564072Y-90360000D01*
X137315330Y-90399397D01*
X137075815Y-90477219D01*
X136851413Y-90591559D01*
X136749301Y-90665747D01*
X136749300Y-90665748D01*
X137365974Y-91282421D01*
X137334742Y-91295359D01*
X137211903Y-91377437D01*
X137107437Y-91481903D01*
X137025359Y-91604742D01*
X137012421Y-91635974D01*
X136395748Y-91019300D01*
X136395747Y-91019301D01*
X136321559Y-91121413D01*
X136207219Y-91345815D01*
X136129397Y-91585330D01*
X136090000Y-91834071D01*
X136090000Y-92085928D01*
X136129397Y-92334669D01*
X136207219Y-92574184D01*
X136321557Y-92798583D01*
X136395748Y-92900697D01*
X136395748Y-92900698D01*
X137012421Y-92284024D01*
X137025359Y-92315258D01*
X137107437Y-92438097D01*
X137211903Y-92542563D01*
X137334742Y-92624641D01*
X137365974Y-92637577D01*
X136749300Y-93254250D01*
X136751598Y-93283449D01*
X136737233Y-93351827D01*
X136688181Y-93401583D01*
X136620016Y-93416921D01*
X136608583Y-93415650D01*
X136506611Y-93399500D01*
X136333389Y-93399500D01*
X136293728Y-93405781D01*
X136162302Y-93426597D01*
X135997552Y-93480128D01*
X135843211Y-93558768D01*
X135778562Y-93605739D01*
X135703072Y-93660586D01*
X135703070Y-93660588D01*
X135703069Y-93660588D01*
X135580588Y-93783069D01*
X135580588Y-93783070D01*
X135580586Y-93783072D01*
X135536859Y-93843256D01*
X135478768Y-93923211D01*
X135400128Y-94077552D01*
X135346597Y-94242302D01*
X135321004Y-94403895D01*
X135319500Y-94413389D01*
X123758597Y-94413389D01*
X123756054Y-94403900D01*
X123734763Y-94352500D01*
X123663226Y-94179794D01*
X123663224Y-94179788D01*
X123541936Y-93969711D01*
X123394265Y-93777262D01*
X123394260Y-93777256D01*
X123222743Y-93605739D01*
X123222736Y-93605733D01*
X123030293Y-93458067D01*
X123030292Y-93458066D01*
X123030289Y-93458064D01*
X122820212Y-93336776D01*
X122800092Y-93328442D01*
X122596104Y-93243947D01*
X122361785Y-93181161D01*
X122121289Y-93149500D01*
X122121288Y-93149500D01*
X121878712Y-93149500D01*
X121878711Y-93149500D01*
X121638214Y-93181161D01*
X121403895Y-93243947D01*
X121179794Y-93336773D01*
X121179785Y-93336777D01*
X120969706Y-93458067D01*
X120777263Y-93605733D01*
X120777256Y-93605739D01*
X120605739Y-93777256D01*
X120605733Y-93777263D01*
X120458067Y-93969706D01*
X120336777Y-94179785D01*
X120336773Y-94179794D01*
X120243947Y-94403895D01*
X120181161Y-94638214D01*
X120149500Y-94878711D01*
X112000500Y-94878711D01*
X112000500Y-58583713D01*
X113149500Y-58583713D01*
X113149500Y-58796286D01*
X113182753Y-59006239D01*
X113182753Y-59006241D01*
X113182754Y-59006243D01*
X113237431Y-59174522D01*
X113248444Y-59208414D01*
X113344951Y-59397820D01*
X113469890Y-59569786D01*
X113620213Y-59720109D01*
X113792182Y-59845050D01*
X113800946Y-59849516D01*
X113851742Y-59897491D01*
X113868536Y-59965312D01*
X113845998Y-60031447D01*
X113800946Y-60070484D01*
X113792182Y-60074949D01*
X113620213Y-60199890D01*
X113469890Y-60350213D01*
X113344951Y-60522179D01*
X113248444Y-60711585D01*
X113182753Y-60913760D01*
X113149500Y-61123713D01*
X113149500Y-61336286D01*
X113182753Y-61546239D01*
X113182753Y-61546241D01*
X113182754Y-61546243D01*
X113237431Y-61714522D01*
X113248444Y-61748414D01*
X113344951Y-61937820D01*
X113469890Y-62109786D01*
X113620213Y-62260109D01*
X113792182Y-62385050D01*
X113800946Y-62389516D01*
X113851742Y-62437491D01*
X113868536Y-62505312D01*
X113845998Y-62571447D01*
X113800946Y-62610484D01*
X113792182Y-62614949D01*
X113620213Y-62739890D01*
X113469890Y-62890213D01*
X113344951Y-63062179D01*
X113248444Y-63251585D01*
X113182753Y-63453760D01*
X113149500Y-63663713D01*
X113149500Y-63876286D01*
X113181303Y-64077087D01*
X113182754Y-64086243D01*
X113203140Y-64148985D01*
X113248444Y-64288414D01*
X113344951Y-64477820D01*
X113469890Y-64649786D01*
X113620313Y-64800209D01*
X113653798Y-64861532D01*
X113648814Y-64931224D01*
X113606942Y-64987157D01*
X113569525Y-65006275D01*
X113543004Y-65014539D01*
X113543001Y-65014540D01*
X113403766Y-65098710D01*
X113403762Y-65098713D01*
X113288713Y-65213762D01*
X113288710Y-65213766D01*
X113204540Y-65353001D01*
X113204538Y-65353007D01*
X113156135Y-65508337D01*
X113156134Y-65508344D01*
X113150000Y-65575848D01*
X113150000Y-66060000D01*
X114066988Y-66060000D01*
X114034075Y-66117007D01*
X114000000Y-66244174D01*
X114000000Y-66375826D01*
X114034075Y-66502993D01*
X114066988Y-66560000D01*
X113150001Y-66560000D01*
X113150001Y-67044162D01*
X113156132Y-67111651D01*
X113156134Y-67111658D01*
X113204537Y-67266989D01*
X113204540Y-67266998D01*
X113288710Y-67406233D01*
X113288713Y-67406237D01*
X113403762Y-67521286D01*
X113403766Y-67521289D01*
X113543001Y-67605459D01*
X113543007Y-67605461D01*
X113698337Y-67653864D01*
X113698344Y-67653865D01*
X113765848Y-67659999D01*
X114249999Y-67659999D01*
X114250000Y-67659998D01*
X114250000Y-66743012D01*
X114307007Y-66775925D01*
X114434174Y-66810000D01*
X114565826Y-66810000D01*
X114692993Y-66775925D01*
X114750000Y-66743012D01*
X114750000Y-67659999D01*
X115234161Y-67659999D01*
X115301651Y-67653867D01*
X115301658Y-67653865D01*
X115456989Y-67605462D01*
X115456998Y-67605459D01*
X115596233Y-67521289D01*
X115596237Y-67521286D01*
X115711286Y-67406237D01*
X115711289Y-67406233D01*
X115795459Y-67266998D01*
X115795461Y-67266992D01*
X115843864Y-67111662D01*
X115843865Y-67111655D01*
X115850000Y-67044151D01*
X115850000Y-66560000D01*
X114933012Y-66560000D01*
X114965925Y-66502993D01*
X115000000Y-66375826D01*
X115000000Y-66244174D01*
X114965925Y-66117007D01*
X114933012Y-66060000D01*
X115849999Y-66060000D01*
X115849999Y-65575837D01*
X115843867Y-65508348D01*
X115843865Y-65508341D01*
X115795462Y-65353010D01*
X115795459Y-65353001D01*
X115711289Y-65213766D01*
X115711286Y-65213762D01*
X115596237Y-65098713D01*
X115596233Y-65098710D01*
X115456998Y-65014540D01*
X115456993Y-65014538D01*
X115430475Y-65006275D01*
X115372328Y-64967536D01*
X115344355Y-64903510D01*
X115355437Y-64834525D01*
X115379686Y-64800208D01*
X115379784Y-64800109D01*
X115379792Y-64800104D01*
X115530104Y-64649792D01*
X115532274Y-64646806D01*
X115655048Y-64477820D01*
X115655047Y-64477820D01*
X115655051Y-64477816D01*
X115751557Y-64288412D01*
X115817246Y-64086243D01*
X115850500Y-63876287D01*
X115850500Y-63729097D01*
X115870185Y-63662058D01*
X115922989Y-63616303D01*
X115992147Y-63606359D01*
X116055703Y-63635384D01*
X116062181Y-63641416D01*
X120633639Y-68212874D01*
X120633649Y-68212885D01*
X120637979Y-68217215D01*
X120637980Y-68217216D01*
X120749784Y-68329020D01*
X120749786Y-68329021D01*
X120749790Y-68329024D01*
X120886709Y-68408073D01*
X120886716Y-68408077D01*
X120998519Y-68438034D01*
X121039442Y-68449000D01*
X121039443Y-68449000D01*
X154693270Y-68449000D01*
X154760309Y-68468685D01*
X154797191Y-68506366D01*
X154797349Y-68506252D01*
X154798127Y-68507323D01*
X154799000Y-68508215D01*
X154800210Y-68510190D01*
X154800213Y-68510194D01*
X154917019Y-68670964D01*
X155057536Y-68811481D01*
X155218306Y-68928287D01*
X155336832Y-68988679D01*
X155374780Y-69008015D01*
X155425576Y-69055990D01*
X155442371Y-69123811D01*
X155419833Y-69189946D01*
X155374780Y-69228985D01*
X155218305Y-69308713D01*
X155057533Y-69425521D01*
X154917021Y-69566033D01*
X154800213Y-69726805D01*
X154709994Y-69903867D01*
X154709993Y-69903870D01*
X154648587Y-70092862D01*
X154617500Y-70289139D01*
X154617500Y-70487860D01*
X154648587Y-70684137D01*
X154709993Y-70873129D01*
X154709994Y-70873132D01*
X154800213Y-71050194D01*
X154917019Y-71210964D01*
X155057536Y-71351481D01*
X155218306Y-71468287D01*
X155305149Y-71512535D01*
X155395367Y-71558505D01*
X155395370Y-71558506D01*
X155489866Y-71589209D01*
X155584364Y-71619913D01*
X155780639Y-71651000D01*
X155780640Y-71651000D01*
X155979360Y-71651000D01*
X155979361Y-71651000D01*
X156175636Y-71619913D01*
X156364632Y-71558505D01*
X156541694Y-71468287D01*
X156702464Y-71351481D01*
X156842981Y-71210964D01*
X156959787Y-71050194D01*
X157050005Y-70873132D01*
X157111413Y-70684136D01*
X157142500Y-70487861D01*
X157142500Y-70289139D01*
X157111413Y-70092864D01*
X157050005Y-69903868D01*
X157050005Y-69903867D01*
X156959786Y-69726805D01*
X156842981Y-69566036D01*
X156702464Y-69425519D01*
X156541694Y-69308713D01*
X156385218Y-69228984D01*
X156334423Y-69181010D01*
X156317628Y-69113189D01*
X156340165Y-69047054D01*
X156385218Y-69008015D01*
X156541694Y-68928287D01*
X156702464Y-68811481D01*
X156842981Y-68670964D01*
X156959787Y-68510194D01*
X157050005Y-68333132D01*
X157111413Y-68144136D01*
X157142500Y-67947861D01*
X157142500Y-67749139D01*
X157111413Y-67552864D01*
X157080442Y-67457544D01*
X157050006Y-67363870D01*
X157050005Y-67363867D01*
X156980937Y-67228315D01*
X156959787Y-67186806D01*
X156842981Y-67026036D01*
X156702464Y-66885519D01*
X156541694Y-66768713D01*
X156385218Y-66688984D01*
X156334423Y-66641010D01*
X156317628Y-66573189D01*
X156340165Y-66507054D01*
X156385218Y-66468015D01*
X156541694Y-66388287D01*
X156702464Y-66271481D01*
X156842981Y-66130964D01*
X156959787Y-65970194D01*
X157050005Y-65793132D01*
X157111413Y-65604136D01*
X157142500Y-65407861D01*
X157142500Y-65209139D01*
X157111413Y-65012864D01*
X157050005Y-64823868D01*
X157050005Y-64823867D01*
X156980937Y-64688315D01*
X156959787Y-64646806D01*
X156842981Y-64486036D01*
X156702464Y-64345519D01*
X156541694Y-64228713D01*
X156385218Y-64148984D01*
X156334423Y-64101010D01*
X156317628Y-64033189D01*
X156340165Y-63967054D01*
X156385218Y-63928015D01*
X156541694Y-63848287D01*
X156702464Y-63731481D01*
X156842981Y-63590964D01*
X156959787Y-63430194D01*
X157050005Y-63253132D01*
X157111413Y-63064136D01*
X157142500Y-62867861D01*
X157142500Y-62669139D01*
X157111413Y-62472864D01*
X157050005Y-62283868D01*
X157050005Y-62283867D01*
X156959786Y-62106805D01*
X156842981Y-61946036D01*
X156702464Y-61805519D01*
X156541694Y-61688713D01*
X156385218Y-61608984D01*
X156334423Y-61561010D01*
X156317628Y-61493189D01*
X156340165Y-61427054D01*
X156385218Y-61388015D01*
X156541694Y-61308287D01*
X156702464Y-61191481D01*
X156842981Y-61050964D01*
X156959787Y-60890194D01*
X157050005Y-60713132D01*
X157111413Y-60524136D01*
X157142500Y-60327861D01*
X157142500Y-60129139D01*
X157111413Y-59932864D01*
X157050005Y-59743868D01*
X157050005Y-59743867D01*
X156985944Y-59618142D01*
X156959787Y-59566806D01*
X156842981Y-59406036D01*
X156702464Y-59265519D01*
X156541694Y-59148713D01*
X156385218Y-59068984D01*
X156334423Y-59021010D01*
X156317628Y-58953189D01*
X156340165Y-58887054D01*
X156385218Y-58848015D01*
X156541694Y-58768287D01*
X156702464Y-58651481D01*
X156842981Y-58510964D01*
X156959787Y-58350194D01*
X157050005Y-58173132D01*
X157111413Y-57984136D01*
X157142500Y-57787861D01*
X157142500Y-57589139D01*
X157111413Y-57392864D01*
X157111411Y-57392858D01*
X157110870Y-57390604D01*
X157110914Y-57389715D01*
X157110651Y-57388052D01*
X157111000Y-57387996D01*
X157114359Y-57320821D01*
X157143764Y-57273970D01*
X157154420Y-57263314D01*
X157215745Y-57229833D01*
X157242097Y-57227000D01*
X169772334Y-57227000D01*
X169839373Y-57246685D01*
X169885128Y-57299489D01*
X169895072Y-57368647D01*
X169890264Y-57389320D01*
X169889075Y-57392978D01*
X169858000Y-57589178D01*
X169858000Y-57787821D01*
X169889075Y-57984020D01*
X169889075Y-57984023D01*
X169950457Y-58172937D01*
X170040641Y-58349932D01*
X170067730Y-58387215D01*
X170682352Y-57772593D01*
X170705792Y-57860071D01*
X170764311Y-57961430D01*
X170847070Y-58044189D01*
X170948429Y-58102708D01*
X171035905Y-58126147D01*
X170421283Y-58740768D01*
X170421283Y-58740769D01*
X170458567Y-58767858D01*
X170615331Y-58847734D01*
X170666127Y-58895709D01*
X170682922Y-58963530D01*
X170660384Y-59029665D01*
X170615331Y-59068704D01*
X170458305Y-59148713D01*
X170297533Y-59265521D01*
X170157021Y-59406033D01*
X170040213Y-59566805D01*
X169949994Y-59743867D01*
X169949993Y-59743870D01*
X169888587Y-59932862D01*
X169872973Y-60031447D01*
X169857500Y-60129139D01*
X169857500Y-60327861D01*
X169861040Y-60350213D01*
X169888587Y-60524137D01*
X169949993Y-60713129D01*
X169949994Y-60713132D01*
X170020368Y-60851247D01*
X170040213Y-60890194D01*
X170157019Y-61050964D01*
X170297536Y-61191481D01*
X170458306Y-61308287D01*
X170513257Y-61336286D01*
X170614780Y-61388015D01*
X170665576Y-61435990D01*
X170682371Y-61503811D01*
X170659833Y-61569946D01*
X170614780Y-61608985D01*
X170458305Y-61688713D01*
X170297533Y-61805521D01*
X170157021Y-61946033D01*
X170040213Y-62106805D01*
X169949994Y-62283867D01*
X169949993Y-62283870D01*
X169888587Y-62472862D01*
X169881368Y-62518443D01*
X169857500Y-62669139D01*
X169857500Y-62867861D01*
X169861040Y-62890213D01*
X169888587Y-63064137D01*
X169949993Y-63253129D01*
X169949994Y-63253132D01*
X170040213Y-63430194D01*
X170157019Y-63590964D01*
X170297536Y-63731481D01*
X170458306Y-63848287D01*
X170513257Y-63876286D01*
X170614780Y-63928015D01*
X170665576Y-63975990D01*
X170682371Y-64043811D01*
X170659833Y-64109946D01*
X170614780Y-64148985D01*
X170458305Y-64228713D01*
X170297533Y-64345521D01*
X170157021Y-64486033D01*
X170040213Y-64646805D01*
X169949994Y-64823867D01*
X169949993Y-64823870D01*
X169888587Y-65012862D01*
X169857500Y-65209139D01*
X169857500Y-65407860D01*
X169888587Y-65604137D01*
X169949993Y-65793129D01*
X169949994Y-65793132D01*
X170003443Y-65898029D01*
X170040213Y-65970194D01*
X170157019Y-66130964D01*
X170297536Y-66271481D01*
X170458306Y-66388287D01*
X170576832Y-66448679D01*
X170614780Y-66468015D01*
X170665576Y-66515990D01*
X170682371Y-66583811D01*
X170659833Y-66649946D01*
X170614780Y-66688985D01*
X170458305Y-66768713D01*
X170297533Y-66885521D01*
X170157021Y-67026033D01*
X170040213Y-67186805D01*
X169949994Y-67363867D01*
X169949993Y-67363870D01*
X169888587Y-67552862D01*
X169857500Y-67749139D01*
X169857500Y-67947860D01*
X169888587Y-68144137D01*
X169949993Y-68333129D01*
X169949994Y-68333132D01*
X170003443Y-68438029D01*
X170040213Y-68510194D01*
X170157019Y-68670964D01*
X170297536Y-68811481D01*
X170458306Y-68928287D01*
X170576832Y-68988679D01*
X170614780Y-69008015D01*
X170665576Y-69055990D01*
X170682371Y-69123811D01*
X170659833Y-69189946D01*
X170614780Y-69228985D01*
X170458305Y-69308713D01*
X170297533Y-69425521D01*
X170157021Y-69566033D01*
X170040213Y-69726805D01*
X169949994Y-69903867D01*
X169949993Y-69903870D01*
X169888587Y-70092862D01*
X169857500Y-70289139D01*
X169857500Y-70487860D01*
X169888586Y-70684136D01*
X169889131Y-70686403D01*
X169889086Y-70687290D01*
X169889349Y-70688948D01*
X169889000Y-70689003D01*
X169885638Y-70756185D01*
X169856237Y-70803026D01*
X151876084Y-88783181D01*
X151814761Y-88816666D01*
X151788403Y-88819500D01*
X145606300Y-88819500D01*
X145539261Y-88799815D01*
X145495815Y-88751795D01*
X145408870Y-88581155D01*
X145389952Y-88555117D01*
X145260798Y-88377350D01*
X145260794Y-88377345D01*
X145082654Y-88199205D01*
X145082649Y-88199201D01*
X144878848Y-88051132D01*
X144878847Y-88051131D01*
X144878845Y-88051130D01*
X144808747Y-88015413D01*
X144654383Y-87936760D01*
X144414785Y-87858910D01*
X144165962Y-87819500D01*
X143914038Y-87819500D01*
X143789626Y-87839205D01*
X143665214Y-87858910D01*
X143425616Y-87936760D01*
X143201151Y-88051132D01*
X142997350Y-88199201D01*
X142997345Y-88199205D01*
X142819205Y-88377345D01*
X142819201Y-88377350D01*
X142671132Y-88581151D01*
X142556760Y-88805616D01*
X142478910Y-89045214D01*
X142439500Y-89294038D01*
X142439500Y-89545961D01*
X142478910Y-89794785D01*
X142556760Y-90034383D01*
X142671132Y-90258848D01*
X142819201Y-90462649D01*
X142819205Y-90462654D01*
X142997345Y-90640794D01*
X142997350Y-90640798D01*
X143175117Y-90769952D01*
X143201155Y-90788870D01*
X143344184Y-90861747D01*
X143425616Y-90903239D01*
X143425618Y-90903239D01*
X143425621Y-90903241D01*
X143665215Y-90981090D01*
X143914038Y-91020500D01*
X143914039Y-91020500D01*
X144165961Y-91020500D01*
X144165962Y-91020500D01*
X144414785Y-90981090D01*
X144654379Y-90903241D01*
X144878845Y-90788870D01*
X145082656Y-90640793D01*
X145260793Y-90462656D01*
X145408870Y-90258845D01*
X145495815Y-90088204D01*
X145543789Y-90037409D01*
X145606300Y-90020500D01*
X152001831Y-90020500D01*
X152001847Y-90020501D01*
X152009443Y-90020501D01*
X152167554Y-90020501D01*
X152167557Y-90020501D01*
X152320285Y-89979577D01*
X152370404Y-89950639D01*
X152457216Y-89900520D01*
X152569020Y-89788716D01*
X152569020Y-89788714D01*
X152579228Y-89778507D01*
X152579230Y-89778504D01*
X153063696Y-89294038D01*
X164939500Y-89294038D01*
X164939500Y-89545961D01*
X164978910Y-89794785D01*
X165056760Y-90034383D01*
X165171132Y-90258848D01*
X165319201Y-90462649D01*
X165319205Y-90462654D01*
X165497345Y-90640794D01*
X165497350Y-90640798D01*
X165675117Y-90769952D01*
X165701155Y-90788870D01*
X165844184Y-90861747D01*
X165925616Y-90903239D01*
X165925618Y-90903239D01*
X165925621Y-90903241D01*
X166165215Y-90981090D01*
X166414038Y-91020500D01*
X166414039Y-91020500D01*
X166665961Y-91020500D01*
X166665962Y-91020500D01*
X166914785Y-90981090D01*
X167154379Y-90903241D01*
X167378845Y-90788870D01*
X167582656Y-90640793D01*
X167760793Y-90462656D01*
X167908870Y-90258845D01*
X168023241Y-90034379D01*
X168101090Y-89794785D01*
X168140500Y-89545962D01*
X168140500Y-89294038D01*
X186439500Y-89294038D01*
X186439500Y-89545961D01*
X186478910Y-89794785D01*
X186556760Y-90034383D01*
X186671132Y-90258848D01*
X186819201Y-90462649D01*
X186819205Y-90462654D01*
X186997345Y-90640794D01*
X186997350Y-90640798D01*
X187175117Y-90769952D01*
X187201155Y-90788870D01*
X187344184Y-90861747D01*
X187425616Y-90903239D01*
X187425618Y-90903239D01*
X187425621Y-90903241D01*
X187665215Y-90981090D01*
X187914038Y-91020500D01*
X187914039Y-91020500D01*
X188165961Y-91020500D01*
X188165962Y-91020500D01*
X188414785Y-90981090D01*
X188654379Y-90903241D01*
X188878845Y-90788870D01*
X189082656Y-90640793D01*
X189260793Y-90462656D01*
X189408870Y-90258845D01*
X189523241Y-90034379D01*
X189601090Y-89794785D01*
X189640500Y-89545962D01*
X189640500Y-89294038D01*
X189601090Y-89045215D01*
X189523241Y-88805621D01*
X189523239Y-88805618D01*
X189523239Y-88805616D01*
X189481747Y-88724184D01*
X189408870Y-88581155D01*
X189389952Y-88555117D01*
X189260798Y-88377350D01*
X189260794Y-88377345D01*
X189082654Y-88199205D01*
X189082649Y-88199201D01*
X188878848Y-88051132D01*
X188878847Y-88051131D01*
X188878845Y-88051130D01*
X188808747Y-88015413D01*
X188654383Y-87936760D01*
X188414785Y-87858910D01*
X188165962Y-87819500D01*
X187914038Y-87819500D01*
X187789626Y-87839205D01*
X187665214Y-87858910D01*
X187425616Y-87936760D01*
X187201151Y-88051132D01*
X186997350Y-88199201D01*
X186997345Y-88199205D01*
X186819205Y-88377345D01*
X186819201Y-88377350D01*
X186671132Y-88581151D01*
X186556760Y-88805616D01*
X186478910Y-89045214D01*
X186439500Y-89294038D01*
X168140500Y-89294038D01*
X168101090Y-89045215D01*
X168023241Y-88805621D01*
X168023239Y-88805618D01*
X168023239Y-88805616D01*
X167981747Y-88724184D01*
X167908870Y-88581155D01*
X167889952Y-88555117D01*
X167760798Y-88377350D01*
X167760794Y-88377345D01*
X167582654Y-88199205D01*
X167582649Y-88199201D01*
X167378848Y-88051132D01*
X167378847Y-88051131D01*
X167378845Y-88051130D01*
X167308747Y-88015413D01*
X167154383Y-87936760D01*
X166914785Y-87858910D01*
X166665962Y-87819500D01*
X166414038Y-87819500D01*
X166289626Y-87839205D01*
X166165214Y-87858910D01*
X165925616Y-87936760D01*
X165701151Y-88051132D01*
X165497350Y-88199201D01*
X165497345Y-88199205D01*
X165319205Y-88377345D01*
X165319201Y-88377350D01*
X165171132Y-88581151D01*
X165056760Y-88805616D01*
X164978910Y-89045214D01*
X164939500Y-89294038D01*
X153063696Y-89294038D01*
X165479022Y-76878711D01*
X190649500Y-76878711D01*
X190649500Y-77121288D01*
X190681161Y-77361785D01*
X190743947Y-77596104D01*
X190836773Y-77820205D01*
X190836776Y-77820212D01*
X190958064Y-78030289D01*
X190958066Y-78030292D01*
X190958067Y-78030293D01*
X191105733Y-78222736D01*
X191105739Y-78222743D01*
X191277256Y-78394260D01*
X191277262Y-78394265D01*
X191469711Y-78541936D01*
X191679788Y-78663224D01*
X191903900Y-78756054D01*
X192138211Y-78818838D01*
X192318586Y-78842584D01*
X192378711Y-78850500D01*
X192378712Y-78850500D01*
X192621289Y-78850500D01*
X192669388Y-78844167D01*
X192861789Y-78818838D01*
X193096100Y-78756054D01*
X193320212Y-78663224D01*
X193530289Y-78541936D01*
X193722738Y-78394265D01*
X193894265Y-78222738D01*
X194041936Y-78030289D01*
X194163224Y-77820212D01*
X194256054Y-77596100D01*
X194318838Y-77361789D01*
X194350500Y-77121288D01*
X194350500Y-76878712D01*
X194318838Y-76638211D01*
X194256054Y-76403900D01*
X194163224Y-76179788D01*
X194041936Y-75969711D01*
X193894265Y-75777262D01*
X193894260Y-75777256D01*
X193722743Y-75605739D01*
X193722736Y-75605733D01*
X193530293Y-75458067D01*
X193530292Y-75458066D01*
X193530289Y-75458064D01*
X193320212Y-75336776D01*
X193320205Y-75336773D01*
X193096104Y-75243947D01*
X192861785Y-75181161D01*
X192621289Y-75149500D01*
X192621288Y-75149500D01*
X192378712Y-75149500D01*
X192378711Y-75149500D01*
X192138214Y-75181161D01*
X191903895Y-75243947D01*
X191679794Y-75336773D01*
X191679785Y-75336777D01*
X191469706Y-75458067D01*
X191277263Y-75605733D01*
X191277256Y-75605739D01*
X191105739Y-75777256D01*
X191105733Y-75777263D01*
X190958067Y-75969706D01*
X190836777Y-76179785D01*
X190836773Y-76179794D01*
X190743947Y-76403895D01*
X190681161Y-76638214D01*
X190649500Y-76878711D01*
X165479022Y-76878711D01*
X170705473Y-71652260D01*
X170766794Y-71618777D01*
X170819521Y-71619341D01*
X170819552Y-71619151D01*
X170820843Y-71619355D01*
X170822099Y-71619369D01*
X170824352Y-71619909D01*
X170824364Y-71619913D01*
X171020639Y-71651000D01*
X171020640Y-71651000D01*
X171219360Y-71651000D01*
X171219361Y-71651000D01*
X171415636Y-71619913D01*
X171604632Y-71558505D01*
X171781694Y-71468287D01*
X171942464Y-71351481D01*
X172082981Y-71210964D01*
X172199787Y-71050194D01*
X172290005Y-70873132D01*
X172351413Y-70684136D01*
X172382500Y-70487861D01*
X172382500Y-70289139D01*
X172351413Y-70092864D01*
X172290005Y-69903868D01*
X172290005Y-69903867D01*
X172199786Y-69726805D01*
X172082981Y-69566036D01*
X171942464Y-69425519D01*
X171781694Y-69308713D01*
X171625218Y-69228984D01*
X171574423Y-69181010D01*
X171557628Y-69113189D01*
X171580165Y-69047054D01*
X171625218Y-69008015D01*
X171781694Y-68928287D01*
X171942464Y-68811481D01*
X172082981Y-68670964D01*
X172199787Y-68510194D01*
X172290005Y-68333132D01*
X172351413Y-68144136D01*
X172382500Y-67947861D01*
X172382500Y-67749139D01*
X172351413Y-67552864D01*
X172320442Y-67457544D01*
X172290006Y-67363870D01*
X172290005Y-67363867D01*
X172220937Y-67228315D01*
X172199787Y-67186806D01*
X172082981Y-67026036D01*
X171942464Y-66885519D01*
X171781694Y-66768713D01*
X171625218Y-66688984D01*
X171574423Y-66641010D01*
X171557628Y-66573189D01*
X171580165Y-66507054D01*
X171625218Y-66468015D01*
X171781694Y-66388287D01*
X171942464Y-66271481D01*
X172082981Y-66130964D01*
X172199787Y-65970194D01*
X172290005Y-65793132D01*
X172351413Y-65604136D01*
X172382500Y-65407861D01*
X172382500Y-65209139D01*
X172357633Y-65052135D01*
X189149500Y-65052135D01*
X189149500Y-67147870D01*
X189149501Y-67147876D01*
X189155908Y-67207483D01*
X189206202Y-67342328D01*
X189206206Y-67342335D01*
X189292452Y-67457544D01*
X189292455Y-67457547D01*
X189407664Y-67543793D01*
X189407671Y-67543797D01*
X189542517Y-67594091D01*
X189542516Y-67594091D01*
X189549444Y-67594835D01*
X189602127Y-67600500D01*
X192897872Y-67600499D01*
X192957483Y-67594091D01*
X193092331Y-67543796D01*
X193207546Y-67457546D01*
X193293796Y-67342331D01*
X193344091Y-67207483D01*
X193350500Y-67147873D01*
X193350499Y-65052128D01*
X193344091Y-64992517D01*
X193321230Y-64931224D01*
X193293797Y-64857671D01*
X193293793Y-64857664D01*
X193207547Y-64742455D01*
X193207544Y-64742452D01*
X193092335Y-64656206D01*
X193092328Y-64656202D01*
X192957482Y-64605908D01*
X192957483Y-64605908D01*
X192897883Y-64599501D01*
X192897881Y-64599500D01*
X192897873Y-64599500D01*
X192897864Y-64599500D01*
X189602129Y-64599500D01*
X189602123Y-64599501D01*
X189542516Y-64605908D01*
X189407671Y-64656202D01*
X189407664Y-64656206D01*
X189292455Y-64742452D01*
X189292452Y-64742455D01*
X189206206Y-64857664D01*
X189206202Y-64857671D01*
X189155908Y-64992517D01*
X189149501Y-65052116D01*
X189149501Y-65052123D01*
X189149500Y-65052135D01*
X172357633Y-65052135D01*
X172351413Y-65012864D01*
X172290005Y-64823868D01*
X172290005Y-64823867D01*
X172220937Y-64688315D01*
X172199787Y-64646806D01*
X172082981Y-64486036D01*
X171942464Y-64345519D01*
X171781694Y-64228713D01*
X171625218Y-64148984D01*
X171574423Y-64101010D01*
X171557628Y-64033189D01*
X171580165Y-63967054D01*
X171625218Y-63928015D01*
X171781694Y-63848287D01*
X171942464Y-63731481D01*
X172082981Y-63590964D01*
X172199787Y-63430194D01*
X172290005Y-63253132D01*
X172351413Y-63064136D01*
X172382500Y-62867861D01*
X172382500Y-62669139D01*
X172351413Y-62472864D01*
X172290005Y-62283868D01*
X172290005Y-62283867D01*
X172199786Y-62106805D01*
X172082981Y-61946036D01*
X171942464Y-61805519D01*
X171781694Y-61688713D01*
X171625218Y-61608984D01*
X171574423Y-61561010D01*
X171557628Y-61493189D01*
X171580165Y-61427054D01*
X171625218Y-61388015D01*
X171781694Y-61308287D01*
X171942464Y-61191481D01*
X172082981Y-61050964D01*
X172199787Y-60890194D01*
X172290005Y-60713132D01*
X172351413Y-60524136D01*
X172382500Y-60327861D01*
X172382500Y-60129139D01*
X172351413Y-59932864D01*
X172290005Y-59743868D01*
X172290005Y-59743867D01*
X172225944Y-59618142D01*
X172199787Y-59566806D01*
X172082981Y-59406036D01*
X171942464Y-59265519D01*
X171781694Y-59148713D01*
X171624667Y-59068703D01*
X171573872Y-59020729D01*
X171557077Y-58952908D01*
X171579614Y-58886773D01*
X171624669Y-58847734D01*
X171781422Y-58767864D01*
X171818716Y-58740768D01*
X171204095Y-58126147D01*
X171291571Y-58102708D01*
X171392930Y-58044189D01*
X171475689Y-57961430D01*
X171534208Y-57860071D01*
X171557647Y-57772594D01*
X172172268Y-58387215D01*
X172199362Y-58349925D01*
X172289542Y-58172937D01*
X172350924Y-57984023D01*
X172350924Y-57984020D01*
X172382000Y-57787821D01*
X172382000Y-57589178D01*
X172350924Y-57392978D01*
X172349736Y-57389320D01*
X172347739Y-57319479D01*
X172383819Y-57259645D01*
X172446519Y-57228816D01*
X172467666Y-57227000D01*
X182076403Y-57227000D01*
X182143442Y-57246685D01*
X182164084Y-57263319D01*
X182213181Y-57312416D01*
X182246666Y-57373739D01*
X182249500Y-57400097D01*
X182249500Y-59047870D01*
X182249501Y-59047876D01*
X182255908Y-59107483D01*
X182306202Y-59242328D01*
X182306206Y-59242335D01*
X182392452Y-59357544D01*
X182392453Y-59357544D01*
X182392454Y-59357546D01*
X182435943Y-59390102D01*
X182510599Y-59445990D01*
X182552469Y-59501924D01*
X182557453Y-59571615D01*
X182536605Y-59618141D01*
X182467087Y-59713824D01*
X182359897Y-59924197D01*
X182286934Y-60148752D01*
X182250000Y-60381947D01*
X182250000Y-60618052D01*
X182286934Y-60851247D01*
X182359897Y-61075802D01*
X182467087Y-61286174D01*
X182527338Y-61369104D01*
X182527340Y-61369105D01*
X183267037Y-60629408D01*
X183284075Y-60692993D01*
X183349901Y-60807007D01*
X183442993Y-60900099D01*
X183557007Y-60965925D01*
X183620590Y-60982962D01*
X182874280Y-61729271D01*
X182865105Y-61772947D01*
X182828739Y-61814615D01*
X182772490Y-61855482D01*
X182605485Y-62022487D01*
X182605485Y-62022488D01*
X182605483Y-62022490D01*
X182545862Y-62104550D01*
X182466657Y-62213566D01*
X182359433Y-62424003D01*
X182286446Y-62648631D01*
X182249500Y-62881902D01*
X182249500Y-63118097D01*
X182286446Y-63351368D01*
X182359433Y-63575996D01*
X182466657Y-63786433D01*
X182605483Y-63977510D01*
X182772490Y-64144517D01*
X182963567Y-64283343D01*
X183062991Y-64334002D01*
X183174003Y-64390566D01*
X183174005Y-64390566D01*
X183174008Y-64390568D01*
X183294412Y-64429689D01*
X183398631Y-64463553D01*
X183631903Y-64500500D01*
X183631908Y-64500500D01*
X183868097Y-64500500D01*
X184101368Y-64463553D01*
X184325992Y-64390568D01*
X184536433Y-64283343D01*
X184727510Y-64144517D01*
X184894517Y-63977510D01*
X185033343Y-63786433D01*
X185140568Y-63575992D01*
X185213553Y-63351368D01*
X185229112Y-63253132D01*
X185250500Y-63118097D01*
X185250500Y-62881902D01*
X196749500Y-62881902D01*
X196749500Y-63118097D01*
X196786446Y-63351368D01*
X196859433Y-63575996D01*
X196966657Y-63786433D01*
X197105483Y-63977510D01*
X197272490Y-64144517D01*
X197463567Y-64283343D01*
X197562991Y-64334002D01*
X197674003Y-64390566D01*
X197674005Y-64390566D01*
X197674008Y-64390568D01*
X197794412Y-64429689D01*
X197898631Y-64463553D01*
X198131903Y-64500500D01*
X198131908Y-64500500D01*
X198368097Y-64500500D01*
X198601368Y-64463553D01*
X198825992Y-64390568D01*
X199036433Y-64283343D01*
X199227510Y-64144517D01*
X199394517Y-63977510D01*
X199533343Y-63786433D01*
X199640568Y-63575992D01*
X199713553Y-63351368D01*
X199729112Y-63253132D01*
X199750500Y-63118097D01*
X199750500Y-62881902D01*
X199713553Y-62648631D01*
X199656442Y-62472864D01*
X199640568Y-62424008D01*
X199640566Y-62424005D01*
X199640566Y-62424003D01*
X199569163Y-62283868D01*
X199533343Y-62213567D01*
X199394517Y-62022490D01*
X199227510Y-61855483D01*
X199036433Y-61716657D01*
X198981590Y-61688713D01*
X198825996Y-61609433D01*
X198601368Y-61536446D01*
X198368097Y-61499500D01*
X198368092Y-61499500D01*
X198131908Y-61499500D01*
X198131903Y-61499500D01*
X197898631Y-61536446D01*
X197674003Y-61609433D01*
X197463566Y-61716657D01*
X197354550Y-61795862D01*
X197272490Y-61855483D01*
X197272488Y-61855485D01*
X197272487Y-61855485D01*
X197105485Y-62022487D01*
X197105485Y-62022488D01*
X197105483Y-62022490D01*
X197045862Y-62104550D01*
X196966657Y-62213566D01*
X196859433Y-62424003D01*
X196786446Y-62648631D01*
X196749500Y-62881902D01*
X185250500Y-62881902D01*
X185213553Y-62648631D01*
X185156442Y-62472864D01*
X185140568Y-62424008D01*
X185140566Y-62424005D01*
X185140566Y-62424003D01*
X185069163Y-62283868D01*
X185033343Y-62213567D01*
X184894517Y-62022490D01*
X184727510Y-61855483D01*
X184671259Y-61814614D01*
X184628595Y-61759284D01*
X184623902Y-61727455D01*
X183879408Y-60982962D01*
X183942993Y-60965925D01*
X184057007Y-60900099D01*
X184150099Y-60807007D01*
X184215925Y-60692993D01*
X184232962Y-60629409D01*
X184972658Y-61369105D01*
X184972658Y-61369104D01*
X185032914Y-61286169D01*
X185032918Y-61286163D01*
X185140102Y-61075802D01*
X185213065Y-60851247D01*
X185250000Y-60618052D01*
X185250000Y-60381947D01*
X185213065Y-60148752D01*
X185140102Y-59924197D01*
X185032914Y-59713828D01*
X184963394Y-59618142D01*
X184939914Y-59552335D01*
X184955739Y-59484281D01*
X184989401Y-59445989D01*
X184992329Y-59443796D01*
X184992331Y-59443796D01*
X185107546Y-59357546D01*
X185193796Y-59242331D01*
X185244091Y-59107483D01*
X185250500Y-59047873D01*
X185250499Y-57881947D01*
X196750000Y-57881947D01*
X196750000Y-58118052D01*
X196786934Y-58351247D01*
X196859897Y-58575802D01*
X196967087Y-58786174D01*
X197027338Y-58869104D01*
X197027340Y-58869105D01*
X197767037Y-58129408D01*
X197784075Y-58192993D01*
X197849901Y-58307007D01*
X197942993Y-58400099D01*
X198057007Y-58465925D01*
X198120590Y-58482962D01*
X197380893Y-59222658D01*
X197463828Y-59282914D01*
X197674197Y-59390102D01*
X197898752Y-59463065D01*
X197898751Y-59463065D01*
X198131948Y-59500000D01*
X198368052Y-59500000D01*
X198601247Y-59463065D01*
X198825802Y-59390102D01*
X199036163Y-59282918D01*
X199036169Y-59282914D01*
X199119104Y-59222658D01*
X199119105Y-59222658D01*
X198379408Y-58482962D01*
X198442993Y-58465925D01*
X198557007Y-58400099D01*
X198650099Y-58307007D01*
X198715925Y-58192993D01*
X198732962Y-58129409D01*
X199472658Y-58869105D01*
X199472658Y-58869104D01*
X199532914Y-58786169D01*
X199532918Y-58786163D01*
X199640102Y-58575802D01*
X199713065Y-58351247D01*
X199750000Y-58118052D01*
X199750000Y-57881947D01*
X199713065Y-57648752D01*
X199640102Y-57424197D01*
X199532914Y-57213828D01*
X199472658Y-57130894D01*
X199472658Y-57130893D01*
X198732962Y-57870590D01*
X198715925Y-57807007D01*
X198650099Y-57692993D01*
X198557007Y-57599901D01*
X198442993Y-57534075D01*
X198379409Y-57517037D01*
X199119105Y-56777340D01*
X199119104Y-56777338D01*
X199036174Y-56717087D01*
X198825802Y-56609897D01*
X198601247Y-56536934D01*
X198601248Y-56536934D01*
X198368052Y-56500000D01*
X198131948Y-56500000D01*
X197898752Y-56536934D01*
X197674197Y-56609897D01*
X197463830Y-56717084D01*
X197380894Y-56777340D01*
X198120591Y-57517037D01*
X198057007Y-57534075D01*
X197942993Y-57599901D01*
X197849901Y-57692993D01*
X197784075Y-57807007D01*
X197767037Y-57870591D01*
X197027340Y-57130894D01*
X196967084Y-57213830D01*
X196859897Y-57424197D01*
X196786934Y-57648752D01*
X196750000Y-57881947D01*
X185250499Y-57881947D01*
X185250499Y-56952128D01*
X185244091Y-56892517D01*
X185244090Y-56892514D01*
X185234922Y-56867931D01*
X185193797Y-56757671D01*
X185193793Y-56757664D01*
X185107547Y-56642455D01*
X185107544Y-56642452D01*
X184992335Y-56556206D01*
X184992328Y-56556202D01*
X184857482Y-56505908D01*
X184857483Y-56505908D01*
X184797883Y-56499501D01*
X184797881Y-56499500D01*
X184797873Y-56499500D01*
X184797865Y-56499500D01*
X183150097Y-56499500D01*
X183083058Y-56479815D01*
X183062416Y-56463181D01*
X182864090Y-56264855D01*
X182864088Y-56264852D01*
X182745217Y-56145981D01*
X182745216Y-56145980D01*
X182654317Y-56093500D01*
X182608285Y-56066923D01*
X182455557Y-56025999D01*
X182297443Y-56025999D01*
X182289847Y-56025999D01*
X182289831Y-56026000D01*
X172286359Y-56026000D01*
X172219320Y-56006315D01*
X172173565Y-55953511D01*
X172163621Y-55884353D01*
X172186040Y-55829115D01*
X172199787Y-55810194D01*
X172290005Y-55633132D01*
X172351413Y-55444136D01*
X172382500Y-55247861D01*
X172382500Y-55049139D01*
X172351413Y-54852864D01*
X172290005Y-54663868D01*
X172290005Y-54663867D01*
X172199786Y-54486805D01*
X172082981Y-54326036D01*
X171942464Y-54185519D01*
X171781694Y-54068713D01*
X171604632Y-53978494D01*
X171604629Y-53978493D01*
X171415637Y-53917087D01*
X171317498Y-53901543D01*
X171219361Y-53886000D01*
X171020639Y-53886000D01*
X170955214Y-53896362D01*
X170824362Y-53917087D01*
X170635370Y-53978493D01*
X170635367Y-53978494D01*
X170458305Y-54068713D01*
X170297533Y-54185521D01*
X170157021Y-54326033D01*
X170040213Y-54486805D01*
X169949994Y-54663867D01*
X169949993Y-54663870D01*
X169888587Y-54852862D01*
X169857500Y-55049139D01*
X169857500Y-55247860D01*
X169888587Y-55444137D01*
X169949993Y-55633129D01*
X169949994Y-55633132D01*
X170040212Y-55810193D01*
X170053960Y-55829115D01*
X170077439Y-55894922D01*
X170061613Y-55962976D01*
X170011507Y-56011670D01*
X169953641Y-56026000D01*
X157046359Y-56026000D01*
X156979320Y-56006315D01*
X156933565Y-55953511D01*
X156923621Y-55884353D01*
X156946040Y-55829115D01*
X156959787Y-55810194D01*
X157050005Y-55633132D01*
X157111413Y-55444136D01*
X157142500Y-55247861D01*
X157142500Y-55049139D01*
X157111413Y-54852864D01*
X157050005Y-54663868D01*
X157050005Y-54663867D01*
X156959786Y-54486805D01*
X156842981Y-54326036D01*
X156702464Y-54185519D01*
X156541694Y-54068713D01*
X156364632Y-53978494D01*
X156364629Y-53978493D01*
X156175637Y-53917087D01*
X156077498Y-53901543D01*
X155979361Y-53886000D01*
X155780639Y-53886000D01*
X155715214Y-53896362D01*
X155584362Y-53917087D01*
X155395370Y-53978493D01*
X155395367Y-53978494D01*
X155218305Y-54068713D01*
X155057533Y-54185521D01*
X154917021Y-54326033D01*
X154800213Y-54486805D01*
X154709994Y-54663867D01*
X154709993Y-54663870D01*
X154648587Y-54852862D01*
X154617500Y-55049139D01*
X154617500Y-55247860D01*
X154648587Y-55444137D01*
X154709993Y-55633129D01*
X154709994Y-55633132D01*
X154800212Y-55810193D01*
X154800213Y-55810194D01*
X154917019Y-55970964D01*
X155057536Y-56111481D01*
X155218306Y-56228287D01*
X155321710Y-56280974D01*
X155374780Y-56308015D01*
X155425576Y-56355990D01*
X155442371Y-56423811D01*
X155419833Y-56489946D01*
X155374780Y-56528985D01*
X155218305Y-56608713D01*
X155057533Y-56725521D01*
X154917021Y-56866033D01*
X154800213Y-57026805D01*
X154709994Y-57203867D01*
X154709993Y-57203870D01*
X154648587Y-57392862D01*
X154621178Y-57565919D01*
X154617500Y-57589139D01*
X154617500Y-57787861D01*
X154621040Y-57810213D01*
X154648587Y-57984137D01*
X154709993Y-58173129D01*
X154709994Y-58173132D01*
X154778208Y-58307007D01*
X154800213Y-58350194D01*
X154917019Y-58510964D01*
X155057536Y-58651481D01*
X155218306Y-58768287D01*
X155273257Y-58796286D01*
X155374780Y-58848015D01*
X155425576Y-58895990D01*
X155442371Y-58963811D01*
X155419833Y-59029946D01*
X155374780Y-59068985D01*
X155218305Y-59148713D01*
X155057533Y-59265521D01*
X154917021Y-59406033D01*
X154800213Y-59566805D01*
X154709994Y-59743867D01*
X154709993Y-59743870D01*
X154648587Y-59932862D01*
X154632973Y-60031447D01*
X154617500Y-60129139D01*
X154617500Y-60327861D01*
X154621040Y-60350213D01*
X154648587Y-60524137D01*
X154709993Y-60713129D01*
X154709994Y-60713132D01*
X154780368Y-60851247D01*
X154800213Y-60890194D01*
X154917019Y-61050964D01*
X155057536Y-61191481D01*
X155218306Y-61308287D01*
X155273257Y-61336286D01*
X155374780Y-61388015D01*
X155425576Y-61435990D01*
X155442371Y-61503811D01*
X155419833Y-61569946D01*
X155374780Y-61608985D01*
X155218305Y-61688713D01*
X155057533Y-61805521D01*
X154917021Y-61946033D01*
X154800213Y-62106805D01*
X154709994Y-62283867D01*
X154709993Y-62283870D01*
X154648587Y-62472862D01*
X154641368Y-62518443D01*
X154617500Y-62669139D01*
X154617500Y-62867861D01*
X154621040Y-62890213D01*
X154648587Y-63064137D01*
X154709993Y-63253129D01*
X154709994Y-63253132D01*
X154800213Y-63430194D01*
X154917019Y-63590964D01*
X155057536Y-63731481D01*
X155218306Y-63848287D01*
X155273257Y-63876286D01*
X155374780Y-63928015D01*
X155425576Y-63975990D01*
X155442371Y-64043811D01*
X155419833Y-64109946D01*
X155374780Y-64148985D01*
X155218305Y-64228713D01*
X155057533Y-64345521D01*
X154917021Y-64486033D01*
X154800210Y-64646809D01*
X154799000Y-64648785D01*
X154798343Y-64649378D01*
X154797349Y-64650748D01*
X154797061Y-64650539D01*
X154747190Y-64695663D01*
X154693270Y-64708000D01*
X121418597Y-64708000D01*
X121351558Y-64688315D01*
X121330916Y-64671681D01*
X115833757Y-59174522D01*
X115800272Y-59113199D01*
X115803507Y-59048523D01*
X115817246Y-59006243D01*
X115850500Y-58796287D01*
X115850500Y-58583713D01*
X115817246Y-58373757D01*
X115751557Y-58171588D01*
X115655051Y-57982184D01*
X115655049Y-57982181D01*
X115655048Y-57982179D01*
X115530109Y-57810213D01*
X115379786Y-57659890D01*
X115207820Y-57534951D01*
X115018414Y-57438444D01*
X115018413Y-57438443D01*
X115018412Y-57438443D01*
X114816243Y-57372754D01*
X114816241Y-57372753D01*
X114816240Y-57372753D01*
X114654957Y-57347208D01*
X114606287Y-57339500D01*
X114393713Y-57339500D01*
X114345042Y-57347208D01*
X114183760Y-57372753D01*
X114183757Y-57372754D01*
X114025433Y-57424197D01*
X113981585Y-57438444D01*
X113792179Y-57534951D01*
X113620213Y-57659890D01*
X113469890Y-57810213D01*
X113344951Y-57982179D01*
X113248444Y-58171585D01*
X113182753Y-58373760D01*
X113149500Y-58583713D01*
X112000500Y-58583713D01*
X112000500Y-53624500D01*
X112020185Y-53557461D01*
X112072989Y-53511706D01*
X112124500Y-53500500D01*
X189086231Y-53500500D01*
X189153270Y-53520185D01*
G37*
%TD.AperFunction*%
%TD*%
M02*
