%TF.GenerationSoftware,KiCad,Pcbnew,10.0.5*%
%TF.CreationDate,2026-08-10T16:31:16+02:00*%
%TF.ProjectId,soundpad,736f756e-6470-4616-942e-6b696361645f,rev?*%
%TF.SameCoordinates,Original*%
%TF.FileFunction,Soldermask,Bot*%
%TF.FilePolarity,Negative*%
%FSLAX46Y46*%
G04 Gerber Fmt 4.6, Leading zero omitted, Abs format (unit mm)*
G04 Created by KiCad (PCBNEW 10.0.5) date 2026-08-10 16:31:16*
%MOMM*%
%LPD*%
G01*
G04 APERTURE LIST*
G04 Aperture macros list*
%AMRoundRect*
0 Rectangle with rounded corners*
0 $1 Rounding radius*
0 $2 $3 $4 $5 $6 $7 $8 $9 X,Y pos of 4 corners*
0 Add a 4 corners polygon primitive as box body*
4,1,4,$2,$3,$4,$5,$6,$7,$8,$9,$2,$3,0*
0 Add four circle primitives for the rounded corners*
1,1,$1+$1,$2,$3*
1,1,$1+$1,$4,$5*
1,1,$1+$1,$6,$7*
1,1,$1+$1,$8,$9*
0 Add four rect primitives between the rounded corners*
20,1,$1+$1,$2,$3,$4,$5,0*
20,1,$1+$1,$4,$5,$6,$7,0*
20,1,$1+$1,$6,$7,$8,$9,0*
20,1,$1+$1,$8,$9,$2,$3,0*%
G04 Aperture macros list end*
%ADD10C,3.200000*%
%ADD11C,1.700000*%
%ADD12C,4.000000*%
%ADD13C,2.200000*%
%ADD14RoundRect,0.170000X0.680000X-0.680000X0.680000X0.680000X-0.680000X0.680000X-0.680000X-0.680000X0*%
%ADD15R,2.000000X2.000000*%
%ADD16C,2.000000*%
%ADD17R,3.200000X2.000000*%
%ADD18C,1.524000*%
G04 APERTURE END LIST*
D10*
%TO.C,REF\u002A\u002A*%
X122000000Y-95000000D03*
%TD*%
%TO.C,REF\u002A\u002A*%
X192500000Y-77000000D03*
%TD*%
D11*
%TO.C,SW2*%
X180420000Y-94500000D03*
D12*
X185500000Y-94500000D03*
D11*
X190580000Y-94500000D03*
D13*
X188040000Y-89420000D03*
X181690000Y-91960000D03*
%TD*%
D14*
%TO.C,U2*%
X114500000Y-66310000D03*
D11*
X114500000Y-63770000D03*
X114500000Y-61230000D03*
X114500000Y-58690000D03*
%TD*%
%TO.C,SW1*%
X158920000Y-94500000D03*
D12*
X164000000Y-94500000D03*
D11*
X169080000Y-94500000D03*
D13*
X166540000Y-89420000D03*
X160190000Y-91960000D03*
%TD*%
D11*
%TO.C,SW3*%
X136420000Y-94500000D03*
D12*
X141500000Y-94500000D03*
D11*
X146580000Y-94500000D03*
D13*
X144040000Y-89420000D03*
X137690000Y-91960000D03*
%TD*%
D15*
%TO.C,SW4*%
X183750000Y-58000000D03*
D16*
X183750000Y-63000000D03*
X183750000Y-60500000D03*
D17*
X191250000Y-54900000D03*
X191250000Y-66100000D03*
D16*
X198250000Y-63000000D03*
X198250000Y-58000000D03*
%TD*%
D18*
%TO.C,U1*%
X155880000Y-55148500D03*
X155880000Y-57688500D03*
X155880000Y-60228500D03*
X155880000Y-62768500D03*
X155880000Y-65308500D03*
X155880000Y-67848500D03*
X155880000Y-70388500D03*
X171120000Y-70388500D03*
X171120000Y-67848500D03*
X171120000Y-65308500D03*
X171120000Y-62768500D03*
X171120000Y-60228500D03*
X171120000Y-57688500D03*
X171120000Y-55148500D03*
%TD*%
M02*
