%TF.GenerationSoftware,KiCad,Pcbnew,10.0.5*%
%TF.CreationDate,2026-08-10T16:31:16+02:00*%
%TF.ProjectId,soundpad,736f756e-6470-4616-942e-6b696361645f,rev?*%
%TF.SameCoordinates,Original*%
%TF.FileFunction,Legend,Top*%
%TF.FilePolarity,Positive*%
%FSLAX46Y46*%
G04 Gerber Fmt 4.6, Leading zero omitted, Abs format (unit mm)*
G04 Created by KiCad (PCBNEW 10.0.5) date 2026-08-10 16:31:16*
%MOMM*%
%LPD*%
G01*
G04 APERTURE LIST*
%ADD10C,0.150000*%
%ADD11C,0.101600*%
%ADD12C,0.120000*%
%ADD13C,0.127000*%
%ADD14C,0.100000*%
%ADD15C,0.504000*%
G04 APERTURE END LIST*
D10*
X120666666Y-91304819D02*
X120333333Y-90828628D01*
X120095238Y-91304819D02*
X120095238Y-90304819D01*
X120095238Y-90304819D02*
X120476190Y-90304819D01*
X120476190Y-90304819D02*
X120571428Y-90352438D01*
X120571428Y-90352438D02*
X120619047Y-90400057D01*
X120619047Y-90400057D02*
X120666666Y-90495295D01*
X120666666Y-90495295D02*
X120666666Y-90638152D01*
X120666666Y-90638152D02*
X120619047Y-90733390D01*
X120619047Y-90733390D02*
X120571428Y-90781009D01*
X120571428Y-90781009D02*
X120476190Y-90828628D01*
X120476190Y-90828628D02*
X120095238Y-90828628D01*
X121095238Y-90781009D02*
X121428571Y-90781009D01*
X121571428Y-91304819D02*
X121095238Y-91304819D01*
X121095238Y-91304819D02*
X121095238Y-90304819D01*
X121095238Y-90304819D02*
X121571428Y-90304819D01*
X122333333Y-90781009D02*
X122000000Y-90781009D01*
X122000000Y-91304819D02*
X122000000Y-90304819D01*
X122000000Y-90304819D02*
X122476190Y-90304819D01*
X123000000Y-90304819D02*
X123000000Y-90542914D01*
X122761905Y-90447676D02*
X123000000Y-90542914D01*
X123000000Y-90542914D02*
X123238095Y-90447676D01*
X122857143Y-90733390D02*
X123000000Y-90542914D01*
X123000000Y-90542914D02*
X123142857Y-90733390D01*
X123761905Y-90304819D02*
X123761905Y-90542914D01*
X123523810Y-90447676D02*
X123761905Y-90542914D01*
X123761905Y-90542914D02*
X124000000Y-90447676D01*
X123619048Y-90733390D02*
X123761905Y-90542914D01*
X123761905Y-90542914D02*
X123904762Y-90733390D01*
X191166666Y-73304819D02*
X190833333Y-72828628D01*
X190595238Y-73304819D02*
X190595238Y-72304819D01*
X190595238Y-72304819D02*
X190976190Y-72304819D01*
X190976190Y-72304819D02*
X191071428Y-72352438D01*
X191071428Y-72352438D02*
X191119047Y-72400057D01*
X191119047Y-72400057D02*
X191166666Y-72495295D01*
X191166666Y-72495295D02*
X191166666Y-72638152D01*
X191166666Y-72638152D02*
X191119047Y-72733390D01*
X191119047Y-72733390D02*
X191071428Y-72781009D01*
X191071428Y-72781009D02*
X190976190Y-72828628D01*
X190976190Y-72828628D02*
X190595238Y-72828628D01*
X191595238Y-72781009D02*
X191928571Y-72781009D01*
X192071428Y-73304819D02*
X191595238Y-73304819D01*
X191595238Y-73304819D02*
X191595238Y-72304819D01*
X191595238Y-72304819D02*
X192071428Y-72304819D01*
X192833333Y-72781009D02*
X192500000Y-72781009D01*
X192500000Y-73304819D02*
X192500000Y-72304819D01*
X192500000Y-72304819D02*
X192976190Y-72304819D01*
X193500000Y-72304819D02*
X193500000Y-72542914D01*
X193261905Y-72447676D02*
X193500000Y-72542914D01*
X193500000Y-72542914D02*
X193738095Y-72447676D01*
X193357143Y-72733390D02*
X193500000Y-72542914D01*
X193500000Y-72542914D02*
X193642857Y-72733390D01*
X194261905Y-72304819D02*
X194261905Y-72542914D01*
X194023810Y-72447676D02*
X194261905Y-72542914D01*
X194261905Y-72542914D02*
X194500000Y-72447676D01*
X194119048Y-72733390D02*
X194261905Y-72542914D01*
X194261905Y-72542914D02*
X194404762Y-72733390D01*
X184166667Y-87033200D02*
X184309524Y-87080819D01*
X184309524Y-87080819D02*
X184547619Y-87080819D01*
X184547619Y-87080819D02*
X184642857Y-87033200D01*
X184642857Y-87033200D02*
X184690476Y-86985580D01*
X184690476Y-86985580D02*
X184738095Y-86890342D01*
X184738095Y-86890342D02*
X184738095Y-86795104D01*
X184738095Y-86795104D02*
X184690476Y-86699866D01*
X184690476Y-86699866D02*
X184642857Y-86652247D01*
X184642857Y-86652247D02*
X184547619Y-86604628D01*
X184547619Y-86604628D02*
X184357143Y-86557009D01*
X184357143Y-86557009D02*
X184261905Y-86509390D01*
X184261905Y-86509390D02*
X184214286Y-86461771D01*
X184214286Y-86461771D02*
X184166667Y-86366533D01*
X184166667Y-86366533D02*
X184166667Y-86271295D01*
X184166667Y-86271295D02*
X184214286Y-86176057D01*
X184214286Y-86176057D02*
X184261905Y-86128438D01*
X184261905Y-86128438D02*
X184357143Y-86080819D01*
X184357143Y-86080819D02*
X184595238Y-86080819D01*
X184595238Y-86080819D02*
X184738095Y-86128438D01*
X185071429Y-86080819D02*
X185309524Y-87080819D01*
X185309524Y-87080819D02*
X185500000Y-86366533D01*
X185500000Y-86366533D02*
X185690476Y-87080819D01*
X185690476Y-87080819D02*
X185928572Y-86080819D01*
X186261905Y-86176057D02*
X186309524Y-86128438D01*
X186309524Y-86128438D02*
X186404762Y-86080819D01*
X186404762Y-86080819D02*
X186642857Y-86080819D01*
X186642857Y-86080819D02*
X186738095Y-86128438D01*
X186738095Y-86128438D02*
X186785714Y-86176057D01*
X186785714Y-86176057D02*
X186833333Y-86271295D01*
X186833333Y-86271295D02*
X186833333Y-86366533D01*
X186833333Y-86366533D02*
X186785714Y-86509390D01*
X186785714Y-86509390D02*
X186214286Y-87080819D01*
X186214286Y-87080819D02*
X186833333Y-87080819D01*
X111454819Y-63071904D02*
X112264342Y-63071904D01*
X112264342Y-63071904D02*
X112359580Y-63024285D01*
X112359580Y-63024285D02*
X112407200Y-62976666D01*
X112407200Y-62976666D02*
X112454819Y-62881428D01*
X112454819Y-62881428D02*
X112454819Y-62690952D01*
X112454819Y-62690952D02*
X112407200Y-62595714D01*
X112407200Y-62595714D02*
X112359580Y-62548095D01*
X112359580Y-62548095D02*
X112264342Y-62500476D01*
X112264342Y-62500476D02*
X111454819Y-62500476D01*
X111550057Y-62071904D02*
X111502438Y-62024285D01*
X111502438Y-62024285D02*
X111454819Y-61929047D01*
X111454819Y-61929047D02*
X111454819Y-61690952D01*
X111454819Y-61690952D02*
X111502438Y-61595714D01*
X111502438Y-61595714D02*
X111550057Y-61548095D01*
X111550057Y-61548095D02*
X111645295Y-61500476D01*
X111645295Y-61500476D02*
X111740533Y-61500476D01*
X111740533Y-61500476D02*
X111883390Y-61548095D01*
X111883390Y-61548095D02*
X112454819Y-62119523D01*
X112454819Y-62119523D02*
X112454819Y-61500476D01*
X162666667Y-87033200D02*
X162809524Y-87080819D01*
X162809524Y-87080819D02*
X163047619Y-87080819D01*
X163047619Y-87080819D02*
X163142857Y-87033200D01*
X163142857Y-87033200D02*
X163190476Y-86985580D01*
X163190476Y-86985580D02*
X163238095Y-86890342D01*
X163238095Y-86890342D02*
X163238095Y-86795104D01*
X163238095Y-86795104D02*
X163190476Y-86699866D01*
X163190476Y-86699866D02*
X163142857Y-86652247D01*
X163142857Y-86652247D02*
X163047619Y-86604628D01*
X163047619Y-86604628D02*
X162857143Y-86557009D01*
X162857143Y-86557009D02*
X162761905Y-86509390D01*
X162761905Y-86509390D02*
X162714286Y-86461771D01*
X162714286Y-86461771D02*
X162666667Y-86366533D01*
X162666667Y-86366533D02*
X162666667Y-86271295D01*
X162666667Y-86271295D02*
X162714286Y-86176057D01*
X162714286Y-86176057D02*
X162761905Y-86128438D01*
X162761905Y-86128438D02*
X162857143Y-86080819D01*
X162857143Y-86080819D02*
X163095238Y-86080819D01*
X163095238Y-86080819D02*
X163238095Y-86128438D01*
X163571429Y-86080819D02*
X163809524Y-87080819D01*
X163809524Y-87080819D02*
X164000000Y-86366533D01*
X164000000Y-86366533D02*
X164190476Y-87080819D01*
X164190476Y-87080819D02*
X164428572Y-86080819D01*
X165333333Y-87080819D02*
X164761905Y-87080819D01*
X165047619Y-87080819D02*
X165047619Y-86080819D01*
X165047619Y-86080819D02*
X164952381Y-86223676D01*
X164952381Y-86223676D02*
X164857143Y-86318914D01*
X164857143Y-86318914D02*
X164761905Y-86366533D01*
X140166667Y-87033200D02*
X140309524Y-87080819D01*
X140309524Y-87080819D02*
X140547619Y-87080819D01*
X140547619Y-87080819D02*
X140642857Y-87033200D01*
X140642857Y-87033200D02*
X140690476Y-86985580D01*
X140690476Y-86985580D02*
X140738095Y-86890342D01*
X140738095Y-86890342D02*
X140738095Y-86795104D01*
X140738095Y-86795104D02*
X140690476Y-86699866D01*
X140690476Y-86699866D02*
X140642857Y-86652247D01*
X140642857Y-86652247D02*
X140547619Y-86604628D01*
X140547619Y-86604628D02*
X140357143Y-86557009D01*
X140357143Y-86557009D02*
X140261905Y-86509390D01*
X140261905Y-86509390D02*
X140214286Y-86461771D01*
X140214286Y-86461771D02*
X140166667Y-86366533D01*
X140166667Y-86366533D02*
X140166667Y-86271295D01*
X140166667Y-86271295D02*
X140214286Y-86176057D01*
X140214286Y-86176057D02*
X140261905Y-86128438D01*
X140261905Y-86128438D02*
X140357143Y-86080819D01*
X140357143Y-86080819D02*
X140595238Y-86080819D01*
X140595238Y-86080819D02*
X140738095Y-86128438D01*
X141071429Y-86080819D02*
X141309524Y-87080819D01*
X141309524Y-87080819D02*
X141500000Y-86366533D01*
X141500000Y-86366533D02*
X141690476Y-87080819D01*
X141690476Y-87080819D02*
X141928572Y-86080819D01*
X142214286Y-86080819D02*
X142833333Y-86080819D01*
X142833333Y-86080819D02*
X142500000Y-86461771D01*
X142500000Y-86461771D02*
X142642857Y-86461771D01*
X142642857Y-86461771D02*
X142738095Y-86509390D01*
X142738095Y-86509390D02*
X142785714Y-86557009D01*
X142785714Y-86557009D02*
X142833333Y-86652247D01*
X142833333Y-86652247D02*
X142833333Y-86890342D01*
X142833333Y-86890342D02*
X142785714Y-86985580D01*
X142785714Y-86985580D02*
X142738095Y-87033200D01*
X142738095Y-87033200D02*
X142642857Y-87080819D01*
X142642857Y-87080819D02*
X142357143Y-87080819D01*
X142357143Y-87080819D02*
X142261905Y-87033200D01*
X142261905Y-87033200D02*
X142214286Y-86985580D01*
X185216667Y-53707200D02*
X185359524Y-53754819D01*
X185359524Y-53754819D02*
X185597619Y-53754819D01*
X185597619Y-53754819D02*
X185692857Y-53707200D01*
X185692857Y-53707200D02*
X185740476Y-53659580D01*
X185740476Y-53659580D02*
X185788095Y-53564342D01*
X185788095Y-53564342D02*
X185788095Y-53469104D01*
X185788095Y-53469104D02*
X185740476Y-53373866D01*
X185740476Y-53373866D02*
X185692857Y-53326247D01*
X185692857Y-53326247D02*
X185597619Y-53278628D01*
X185597619Y-53278628D02*
X185407143Y-53231009D01*
X185407143Y-53231009D02*
X185311905Y-53183390D01*
X185311905Y-53183390D02*
X185264286Y-53135771D01*
X185264286Y-53135771D02*
X185216667Y-53040533D01*
X185216667Y-53040533D02*
X185216667Y-52945295D01*
X185216667Y-52945295D02*
X185264286Y-52850057D01*
X185264286Y-52850057D02*
X185311905Y-52802438D01*
X185311905Y-52802438D02*
X185407143Y-52754819D01*
X185407143Y-52754819D02*
X185645238Y-52754819D01*
X185645238Y-52754819D02*
X185788095Y-52802438D01*
X186121429Y-52754819D02*
X186359524Y-53754819D01*
X186359524Y-53754819D02*
X186550000Y-53040533D01*
X186550000Y-53040533D02*
X186740476Y-53754819D01*
X186740476Y-53754819D02*
X186978572Y-52754819D01*
X187788095Y-53088152D02*
X187788095Y-53754819D01*
X187550000Y-52707200D02*
X187311905Y-53421485D01*
X187311905Y-53421485D02*
X187930952Y-53421485D01*
D11*
X152903479Y-63377309D02*
X153417526Y-63377309D01*
X153417526Y-63377309D02*
X153478002Y-63347071D01*
X153478002Y-63347071D02*
X153508241Y-63316833D01*
X153508241Y-63316833D02*
X153538479Y-63256357D01*
X153538479Y-63256357D02*
X153538479Y-63135404D01*
X153538479Y-63135404D02*
X153508241Y-63074928D01*
X153508241Y-63074928D02*
X153478002Y-63044690D01*
X153478002Y-63044690D02*
X153417526Y-63014452D01*
X153417526Y-63014452D02*
X152903479Y-63014452D01*
X153538479Y-62379452D02*
X153538479Y-62742309D01*
X153538479Y-62560881D02*
X152903479Y-62560881D01*
X152903479Y-62560881D02*
X152994193Y-62621357D01*
X152994193Y-62621357D02*
X153054669Y-62681833D01*
X153054669Y-62681833D02*
X153084907Y-62742309D01*
%TO.C,SW2*%
D12*
X178515000Y-87515000D02*
X192485000Y-87515000D01*
X178515000Y-101485000D02*
X178515000Y-87515000D01*
X192485000Y-87515000D02*
X192485000Y-101485000D01*
X192485000Y-101485000D02*
X178515000Y-101485000D01*
%TO.C,U2*%
X114500000Y-67690000D02*
X115880000Y-67690000D01*
X115880000Y-66310000D02*
X115880000Y-67690000D01*
X113000000Y-56500000D02*
X151000000Y-56500000D01*
X151000000Y-68500000D01*
X113000000Y-68500000D01*
X113000000Y-56500000D01*
%TO.C,SW1*%
X157015000Y-87515000D02*
X170985000Y-87515000D01*
X157015000Y-101485000D02*
X157015000Y-87515000D01*
X170985000Y-87515000D02*
X170985000Y-101485000D01*
X170985000Y-101485000D02*
X157015000Y-101485000D01*
%TO.C,SW3*%
X134515000Y-87515000D02*
X148485000Y-87515000D01*
X134515000Y-101485000D02*
X134515000Y-87515000D01*
X148485000Y-87515000D02*
X148485000Y-101485000D01*
X148485000Y-101485000D02*
X134515000Y-101485000D01*
%TO.C,SW4*%
X183450000Y-56400000D02*
X184050000Y-56400000D01*
X183750000Y-56700000D02*
X183450000Y-56400000D01*
X184050000Y-56400000D02*
X183750000Y-56700000D01*
X185150000Y-54600000D02*
X185150000Y-66400000D01*
X189250000Y-54600000D02*
X185150000Y-54600000D01*
X189250000Y-66400000D02*
X185150000Y-66400000D01*
X190750000Y-60500000D02*
X191750000Y-60500000D01*
X191250000Y-60000000D02*
X191250000Y-61000000D01*
X193250000Y-54600000D02*
X197350000Y-54600000D01*
X197350000Y-54600000D02*
X197350000Y-57000000D01*
X197350000Y-59200000D02*
X197350000Y-61800000D01*
X197350000Y-64000000D02*
X197350000Y-66400000D01*
X197350000Y-66400000D02*
X193250000Y-66400000D01*
X194250000Y-60500000D02*
G75*
G02*
X188250000Y-60500000I-3000000J0D01*
G01*
X188250000Y-60500000D02*
G75*
G02*
X194250000Y-60500000I3000000J0D01*
G01*
%TO.C,U1*%
D13*
X154610000Y-71277500D02*
X154610000Y-54132500D01*
X156515000Y-73182500D02*
X170485000Y-73182500D01*
X159005000Y-52227500D02*
X159008728Y-51317228D01*
X159508728Y-50817500D02*
X167504000Y-50817500D01*
X168004000Y-51317500D02*
X168004000Y-52227500D01*
D14*
X170485000Y-52227500D02*
X156515000Y-52227500D01*
D13*
X170485000Y-52227500D02*
X156515000Y-52227500D01*
X172390000Y-71277500D02*
X172390000Y-54132500D01*
X154610000Y-54132500D02*
G75*
G02*
X156515000Y-52227500I1905000J0D01*
G01*
X156515000Y-73182500D02*
G75*
G02*
X154610000Y-71277500I1J1905001D01*
G01*
X159008728Y-51317228D02*
G75*
G02*
X159508728Y-50817528I499972J-272D01*
G01*
X167504000Y-50817500D02*
G75*
G02*
X168004000Y-51317500I0J-500000D01*
G01*
X170485000Y-52227500D02*
G75*
G02*
X172390000Y-54132500I0J-1905000D01*
G01*
X172390000Y-71277500D02*
G75*
G02*
X170485000Y-73182500I-1905001J1D01*
G01*
D15*
X154802000Y-52468500D02*
G75*
G02*
X154298000Y-52468500I-252000J0D01*
G01*
X154298000Y-52468500D02*
G75*
G02*
X154802000Y-52468500I252000J0D01*
G01*
X155945000Y-53348500D02*
G75*
G02*
X155441000Y-53348500I-252000J0D01*
G01*
X155441000Y-53348500D02*
G75*
G02*
X155945000Y-53348500I252000J0D01*
G01*
%TD*%
M02*
